<?xml version="1.0" encoding="UTF-8"?>
<!DOCTYPE svg PUBLIC "-//W3C//DTD SVG 1.1//EN" "http://www.w3.org/Graphics/SVG/1.1/DTD/svg11.dtd">
<!-- Creator: CorelDRAW (Evaluation Version) -->
<svg xmlns="http://www.w3.org/2000/svg" xml:space="preserve" width="74.3001mm" height="75.5213mm" version="1.1" style="shape-rendering:geometricPrecision; text-rendering:geometricPrecision; image-rendering:optimizeQuality; fill-rule:evenodd; clip-rule:evenodd"
viewBox="0 0 10817.56 10995.36"
 xmlns:xlink="http://www.w3.org/1999/xlink"
 xmlns:xodm="http://www.corel.com/coreldraw/odm/2003">
 <defs>
  <style type="text/css">
   <![CDATA[
    .fil16 {fill:#FEFEFE;fill-rule:nonzero}
    .fil4 {fill:#CEAE76;fill-rule:nonzero}
    .fil2 {fill:#C9A15B;fill-rule:nonzero}
    .fil22 {fill:#C5A161;fill-rule:nonzero}
    .fil21 {fill:#C3A060;fill-rule:nonzero}
    .fil5 {fill:#C29F5E;fill-rule:nonzero}
    .fil1 {fill:#BC924D;fill-rule:nonzero}
    .fil0 {fill:#A77C38;fill-rule:nonzero}
    .fil20 {fill:#A68863;fill-rule:nonzero}
    .fil11 {fill:#A5845D;fill-rule:nonzero}
    .fil9 {fill:#A5845C;fill-rule:nonzero}
    .fil13 {fill:#9D7D56;fill-rule:nonzero}
    .fil14 {fill:#9D7D55;fill-rule:nonzero}
    .fil10 {fill:#8E6E49;fill-rule:nonzero}
    .fil8 {fill:#8A6948;fill-rule:nonzero}
    .fil12 {fill:#7F5F41;fill-rule:nonzero}
    .fil7 {fill:#6F4E36;fill-rule:nonzero}
    .fil6 {fill:#61432F;fill-rule:nonzero}
    .fil18 {fill:#60412F;fill-rule:nonzero}
    .fil15 {fill:#563C2D;fill-rule:nonzero}
    .fil19 {fill:#51352C;fill-rule:nonzero}
    .fil17 {fill:#51342C;fill-rule:nonzero}
    .fil3 {fill:#4D382D;fill-rule:nonzero}
    .fil23 {fill:#4B4642;fill-rule:nonzero}
   ]]>
  </style>
 </defs>
 <g id="Layer_x0020_1">
  <metadata id="CorelCorpID_0Corel-Layer"/>
  <g id="_1779382786640">
   <path class="fil0" d="M4796.18 965.7c-5.71,91.8 59.33,121.73 126.81,130.73 53.68,7.08 129.49,-69.71 128.25,-124.47 -2.05,-92.38 -41.76,-140.45 -134.67,-145.1 -63.74,-3.22 -121.06,66.78 -120.39,138.84zm-3501.6 5388.74c-4.32,-4.67 -10.63,-8.62 -12.64,-14.17 -33.54,-92.61 -26.35,-109.66 64.25,-147.62 48.03,-19.99 96.78,-38.12 145.16,-57.07 80.06,-14.33 158.24,-37.8 241.09,-37.8 145.71,0.06 285.32,26.96 419.69,82.43 14.47,5.95 29.47,10.58 49.36,17.67 14.38,-30.36 27.94,-55.63 38.67,-82.09 92.15,-226.96 184.29,-453.89 275.3,-681.32 21.78,-54.34 39.24,-110.37 58.66,-165.64 24.75,-45.86 49.36,-91.68 38.77,-151.82 -38.83,-16.68 -80.12,-35.13 -121.98,-52.24 -103.75,-42.43 -214.59,-58.34 -324.05,-63.68 -75.45,-3.65 -155.62,8.27 -226.96,46.02 -57.28,30.3 -115.72,58.54 -173.6,87.78 -6.58,-10.58 -18.13,-20.75 -18.8,-31.64 -3.65,-57.38 53.16,-142.27 105.44,-159.38 30.66,-10.02 62.1,-17.47 93.12,-26.09 77.72,-9.51 155.83,-16.39 232.98,-29.38 43.61,-7.35 81.05,-9.14 121.42,16.28 35.34,22.25 77.3,35.96 118.08,46.69 85.11,22.29 171.35,40.11 261.38,60.76 10.28,-18.43 23.06,-37.29 31.94,-57.77 27.28,-63.13 54.45,-126.3 79.16,-190.45 75.39,-195.49 148.84,-391.69 224.45,-587.12 185.62,-479.26 372.02,-958.16 558.1,-1437.26 17.15,-45.1 34.36,-90.25 50.7,-133.19 -23.43,-34.4 -55.02,-42.11 -86.9,-48.69 -69.86,-14.43 -140.07,-27.23 -209.71,-42.64 -149.87,-33.28 -289.48,-1.99 -424.56,63.39 -29.07,14.08 -59.88,24.45 -89.87,36.47 -20.24,-23.73 -34.05,-52.75 -22.19,-81.26 12.22,-29.28 32.19,-57.16 54.8,-79.67 17.66,-17.56 44.07,-26.75 67.34,-38.26 23.16,-11.46 47.3,-21.05 71.03,-31.55 12.22,2.01 27.68,9.71 36.21,5.01 43.04,-23.94 86.58,-24.3 133.03,-13.51 18.64,4.31 39.81,4.78 58.44,0.67 36.27,-7.91 71.14,-4.88 106.73,2.14 80.02,15.77 160.4,30.15 240.27,46.49 41.09,8.37 80.95,21.01 107.75,68.31 14.49,-29.53 25.62,-49.21 34.11,-69.96 64.09,-157.68 128.19,-315.25 191.27,-473.25 52.08,-130.61 102.83,-261.79 154.14,-392.69 19.36,-44.03 48.54,-84.81 46.33,-136.38 -17.72,-26.96 -46.94,-33.38 -73.96,-43.56 -88.49,-33.22 -180.19,-54.35 -273.04,-69.86 -38,-6.36 -78.27,-10.88 -116.02,-5.5 -105.9,15.11 -212.13,32.53 -304.83,92.35 -33.28,-22.95 -40.33,-53.1 -31.96,-92.29 6.74,-31.43 20.7,-50.43 49.72,-64.92 39.14,-19.55 85.11,-30.55 109.97,-72.46 8.07,25.84 26.92,33.33 52.5,34.01 107.29,2.71 214.17,-11.33 321.98,-5.4 42.43,2.37 83.31,2.46 123.78,15.87 67.34,22.19 134.88,43.56 205.81,66.4 11.09,-24.95 21.21,-45.15 29.18,-66.14 75.61,-198.53 150.12,-397.45 226.25,-595.71 60.92,-158.75 123.16,-316.96 185.98,-474.95 9.91,-25 21.01,-48 5.59,-74.05 25.27,-5.66 50.59,-11.3 79.97,-17.82 14.28,8.27 31.17,17.51 47.61,27.58 58.5,35.95 122.04,58.56 187.52,79.57 335.04,107.59 668.98,218.75 1003.25,328.91 36.88,12.19 76.28,21.84 93.59,63.39 9.39,43.61 48.58,49.41 81.1,62.05 152.25,59.01 305.86,114.68 457.34,175.69 366.62,147.83 732.46,297.45 1098.22,447.32 299.18,122.66 597.48,247.62 896.78,370.13 344.68,140.98 689.99,280.43 1035.14,420.38 60.57,24.55 121.63,47.73 182.34,71.91 24.55,9.87 36.27,-3.07 44.48,-23.47 188.14,89.83 376.79,178.63 564.06,270.16 64.35,31.48 125.84,69.24 175.76,122.44 -8.88,2.77 -19.36,10.02 -26.4,7.54 -55.57,-19.16 162.63,92.19 107.36,72.1 312.98,1172.34 -2505.7,-747.14 -3171.89,-787.5 -60.81,-3.74 -347.2,-195.65 -405.49,-162.1 -70.26,-26.31 -140.83,-51.71 -210.63,-79.14 -408.39,-159.85 -816.3,-320.76 -1224.99,-479.73 -69.33,-27.01 -136.1,-62.1 -214.39,-78.74 -19.31,46.95 -51.82,85.11 -47.45,137.6 2.72,32.55 -13.15,57.74 -37.3,76.07 -75.69,57.1 -150.75,115.5 -229.63,167.99 -63.59,42.34 -136.36,63.71 -213.98,61.99 -78.07,-1.73 -156.09,-5.07 -242.06,-7.89 -10.79,20.54 -26.09,45.45 -37.34,72 -58.97,138.65 -118.6,277 -174.84,416.66 -166.31,413.05 -331.08,826.76 -496.62,1240.13 -172.83,431.6 -346.28,862.99 -518.03,1294.99 -19,47.71 -45.72,94.04 -40.37,149.87 1.7,17.98 -9.14,37.85 -16.58,55.98 -75.77,184.8 -151.05,369.81 -228.2,554 -115.15,274.78 -232.47,548.7 -347.31,823.63 -141.4,338.37 -281.87,677.05 -420.97,1016.35 -24.49,59.58 -58.19,116.79 -65.27,177.71 51.67,44.74 193.19,117.22 239.82,157.69 -45.61,88.03 -136.38,161.77 -153.43,259.97 -49.41,-10.93 -137.19,-21.87 -180.29,6.44 -12.8,8.37 -29.22,22.33 -30.56,35.13 -7.7,76.95 17.18,175.34 95.67,229.83 -7.7,21.27 -15.42,42.59 -23.12,63.9 -29.99,82.03 -44.51,190.06 -73.28,272.54 -9.25,26.35 -76.83,2.77 -106.41,8.07 -82.94,-29.95 -166.78,-57.68 -248.64,-90.35 -113.36,-45.19 -228.92,-76.32 -351.93,-73.45 13.92,-16.32 40.05,-23.82 35.18,-53.56 -4.57,-27.47 7.96,-49.76 22.55,-72.72 15.61,-24.56 26.76,-52.3 37.29,-79.61 60.2,-155.54 118.34,-311.83 179.72,-466.93 106.98,-270.69 216.07,-540.44 323.32,-810.97 13,-32.86 32.61,-65.07 24.97,-103.33 19.2,-33.5 41.9,-65.49 56.55,-100.88 14.43,-34.67 -1.3,-63.27 -38.06,-76.99 -91.59,-34.05 -185.33,-59.94 -283.94,-61.69 -65.02,-1.08 -130.04,-0.82 -195.12,-0.1 -89.73,1.08 -172.67,25.58 -248.6,74.16 -24.55,15.67 -50.13,29.89 -75.29,44.78z"/>
   <path class="fil1" d="M7264.33 9674.53c12.58,32.98 21.11,68.41 38.77,98.57 28.81,49.21 95.9,66.2 146.28,39.91 32.87,-17.21 59.69,-42.67 60.46,-83 0.98,-47.45 -13.37,-93.11 -48.6,-124.29 -56.14,-49.52 -81.36,-55.72 -136.16,-8.58 -9.81,8.47 -23.63,13.41 -31.13,23.37 -11.2,15 -18.39,32.98 -29.63,54.03zm2787.26 -6562c77.7,0.36 145.67,-52.18 146.54,-107.7 0.86,-53.17 -14.65,-103.71 -55.33,-141.14 -13.55,-12.43 -33.38,-23.24 -51.2,-24.93 -63.64,-6.01 -114.44,18.87 -148.43,74.18 -20.4,33.28 -8.84,106.88 23.16,146.63 25.52,31.74 56.75,53.83 85.26,52.95zm-7995 5113.56c29.58,-5.3 41.39,-26.05 50.64,-52.4 28.77,-82.48 59.53,-164.3 89.53,-246.33 7.7,-21.31 15.42,-42.63 23.12,-63.9 35.8,7.29 70.98,7.76 105.5,-7.13 50.27,-21.72 74.06,-59.58 75.18,-114.38 1.14,-59.79 -21.26,-107.51 -65.94,-145.93 17.05,-98.2 52.89,-189.78 98.51,-277.81 83.15,66.3 149.31,146.58 185.47,246.84 27.58,76.52 47.51,155.83 68.66,234.52 10.22,38.22 6.64,74.98 -8.31,114.28 -19.1,50.49 -25.94,105.7 -38.26,159.53 15.04,9.46 25.22,17.78 36.78,22.81 161.58,69.86 323.26,139.39 485.16,208.47 17.78,7.6 36.98,11.81 55.63,17.62 11.09,6.42 21.66,14.33 33.59,19.06 130.35,52.44 260.51,105.44 391.59,156.09 319.98,123.68 641.35,244.07 960.62,369.81 583.77,229.99 1166.32,463.07 1749.69,694 42.06,16.64 86.8,26.45 130.31,39.44 101.19,61.28 215.56,88.97 326.77,135.14 36.66,-52.59 75.55,-97.39 91.62,-154.61 18.08,-64.15 60.35,-107.45 112.28,-143.19 53.77,-37.14 108.48,-73.04 164.56,-106.57 21.62,-13 47.51,-19.77 72.32,-26.35 27.9,-7.34 56.55,-11.66 85.06,-16.38 15.87,-2.68 34.46,-9.45 47.61,-4.12 53.99,22.04 109.72,11.87 164.72,14.44 51.71,2.36 103.39,4.67 155.36,6.99 9.3,-15.11 17.72,-25.38 22.29,-37.04 13.1,-33.33 24.56,-67.28 36.67,-100.98 4.06,-5.08 9.45,-9.59 11.92,-15.35 113.71,-268.31 230.4,-535.34 339.65,-805.52 90.81,-224.55 172.53,-452.75 258.66,-679.21 146.58,-385.62 292.86,-771.35 440.42,-1156.62 153.37,-400.51 305.25,-801.65 462.93,-1200.53 186.61,-471.91 380.23,-941.11 567.35,-1412.86 40.78,-102.83 66.97,-211.56 99.95,-317.52 20.65,-47.61 42.53,-94.97 38.42,-150.54 -24.81,-19 -48.18,-36.51 -71.08,-54.64 -91.94,-73.04 -157.49,-165.23 -198.57,-275.05 -41.7,-111.25 -35.5,-225.06 -16.34,-338.98 6.42,-38.42 18.34,-75.85 10.85,-118.09 -17.67,-9.59 -34.01,-20.08 -51.57,-27.53 -75.24,-31.9 -150.4,-64.29 -226.56,-93.94 -642.85,-250.39 -1286.05,-500.05 -1928.9,-750.5 -149.26,-58.14 -297.53,-118.63 -446.29,-178.06 58.3,-33.54 120.55,-16.79 181.36,-13.05 38.93,2.36 77.5,9.7 116.33,13.41 90.91,8.56 182.54,12.01 272.68,25.42 138.53,20.7 276.18,47.77 414.04,72.62 212.27,38.26 421.11,91.58 628.57,149.52 286.54,80 571.7,165.34 852.29,264.54 280.5,99.19 559.5,202.65 839.05,304.38 55.27,20.09 110.13,41.49 165.7,60.65 7.03,2.48 17.51,-4.78 26.4,-7.54 104.89,78.23 182.14,174.57 202.37,308.44 -6.68,25.06 16.25,89.77 6.9,113.87 -51.82,134.09 -56.87,231.45 -109.72,365.13 -34.83,88.14 -69.29,176.49 -105.76,263.96 -62.87,150.75 -119.97,315.89 -183,466.68 -35.28,84.39 -67.74,170.01 -102.92,254.5 -64.15,153.79 -129.07,307.3 -194.41,460.67 -48.58,114.23 -94.62,240.37 -143.82,354.46 -28.41,66 -56.4,132.26 -85.16,198.15 -58.7,134.82 -103.62,240.02 -163.46,374.33 -41.25,92.61 -58.66,64.38 -99.18,157.28 -79.61,182.75 -179.15,481.01 -256.91,664.57 -105.82,249.78 -165.51,510.58 -266.23,762.4 -131.08,327.7 -322.62,661.28 -446.34,991.79 -98.57,263.33 -226.32,517.7 -337.06,776.32 -93.94,219.61 -164.02,449.84 -275.01,661.4 -50.03,95.33 -83.21,174 -147.46,261.27 -64.66,87.62 -77.31,182.62 -190.77,179.75 -124.39,-3.19 -77.73,34.46 -199.67,12.48 -186.18,-33.53 -165.9,44.36 -348.2,-6.29 -182.43,-50.64 -432.89,-47.11 -615.32,-97.55 -160.4,-44.33 -684.53,-237.99 -844.18,-284.93 -51.25,-15.1 -212.32,-145.71 -265.17,-140.06 -49.15,-17.62 -98.87,-33.59 -147.35,-53 -203.6,-81.52 -406.12,-165.54 -610.18,-245.88 -441.55,-173.81 -885.02,-342.99 -1325.45,-519.68 -379.66,-152.29 -756.3,-312.33 -1134.12,-469.19 -35.89,-14.89 -70.92,-31.84 -106.41,-47.81z"/>
   <path class="fil2" d="M5380.11 9561.63c52.85,-5.65 103.2,2.58 154.44,17.67 159.64,46.94 320.3,90.14 480.7,134.47 182.43,50.43 365.13,100.26 547.56,150.89 182.3,50.65 365.96,95.13 552.15,128.66 121.93,21.98 244.28,36.78 368.67,39.97 113.46,2.87 191.95,-45.72 256.61,-133.33 64.25,-87.27 116.34,-181.41 166.37,-276.74 110.99,-211.56 204.57,-431.09 298.51,-650.7 110.74,-258.62 208.12,-522.1 306.69,-785.43 123.72,-330.51 251.25,-659.74 382.33,-987.44 100.72,-251.82 209.14,-500.56 314.96,-750.34 77.76,-183.56 156.03,-366.88 235.64,-549.63 40.52,-92.9 85.46,-183.87 126.71,-276.48 59.84,-134.31 118.29,-269.29 177,-404.11 28.75,-65.9 56.75,-132.15 85.16,-198.15 49.2,-114.09 98.97,-227.9 147.56,-342.13 65.34,-153.37 130.26,-306.88 194.41,-460.67 35.18,-84.49 67.64,-170.11 102.92,-254.5 63.03,-150.79 127.95,-300.77 190.81,-451.51 36.47,-87.47 70.93,-175.82 105.76,-263.96 52.85,-133.68 105.66,-267.44 157.47,-401.53 9.35,-24.1 13.71,-50.14 20.4,-75.2 30.46,62.04 18.9,128.6 11.09,191.27 -13.61,109.09 -38.58,216.7 -59.39,324.86 -1.08,5.71 -7.24,10.42 -11.09,15.62 -3.38,-5.34 -6.42,-11.09 -10.53,-15.93 -0.77,-0.98 -5.69,1.49 -7.24,2.01 -133.23,366.05 -266.11,731.28 -398.98,1096.52 -5.45,8.01 -12.68,15.26 -16.03,24.04 -62.81,163.18 -125.41,326.46 -187.06,489.99 -6.67,17.72 -7.34,37.69 -10.83,56.61 -8.27,9.75 -19.67,18.29 -24.3,29.58 -43.44,105.5 -86.5,211.2 -127.42,317.77 -4.78,12.38 4.21,30.09 6.77,45.31 -61.12,144.73 -122.14,289.42 -183.26,434.16 -45.86,34.97 -63.42,83.25 -64.92,139.04l0.67 -1.3c-15.56,24.1 -34.67,46.59 -46.12,72.53 -70.31,159.79 -138.88,320.33 -208.07,480.65 -4.41,12.27 -8.42,24.75 -13.41,36.76 -51.35,123.94 -102.82,247.73 -154.44,371.51 -9.04,21.62 -18.59,42.94 4.27,62.26 -32.41,29.79 -45.92,70.31 -61.12,109.6 -83.51,216.23 -165.13,433.14 -250.23,648.7 -97.08,245.96 -196.87,490.87 -296.05,735.96 -61.22,151.21 -132.68,298.36 -179.05,455.43 -1.7,5.85 -7.19,10.58 -10.99,15.83 -30.62,16.68 -39.03,48.73 -51.51,77.03 -17.78,40.43 -32.67,82.09 -48.8,123.22 -49.2,84.85 -75.24,178.64 -104.56,271.2 -28.2,59.11 -55.47,118.6 -54.92,186.18 -69.9,178.99 -140.06,358.3 -245.76,519.88 -49.76,76.01 -108.28,146.34 -163.95,218.35 -7.29,9.51 -20.69,17.72 -32.51,19.83 -82.74,14.79 -161.64,52.49 -248.54,43.08 -50.9,2.88 -103.34,-18.64 -152.54,10.02 -5.85,-21.98 -22.45,-27.47 -42.73,-32.61 -128.21,-32.31 -256.1,-65.79 -383.99,-99.54 -40.72,-10.77 -78.17,-24.55 -103.39,-64.82 -12.23,-19.47 -41.04,-28.41 -62.36,-42.11 -10.63,-11.66 -19.1,-28.36 -32.37,-34.01 -71.65,-31.03 -144.01,-60.35 -217.21,-87.41 -12.58,-4.67 -30.2,4.27 -45.45,6.89 -86.48,-37.5 -172.51,-76.01 -259.42,-112.34 -255.22,-106.62 -510.86,-212.17 -766.07,-318.75 -20.65,-8.58 -39.4,-21.68 -59.02,-32.67z"/>
   <path class="fil3" d="M3573.56 2739.55c-186.08,479.1 -372.48,958 -558.1,1437.26 -75.61,195.43 -149.06,391.63 -224.45,587.12 -24.71,64.15 -51.87,127.32 -79.16,190.45 -8.88,20.48 -21.66,39.34 -31.94,57.77 -90.03,-20.65 -176.27,-38.47 -261.38,-60.76 -40.78,-10.73 -82.74,-24.45 -118.08,-46.69 -40.37,-25.42 -77.82,-23.63 -121.42,-16.28 -77.15,12.99 -155.26,19.87 -232.98,29.38 252.91,-658.98 524.25,-1310.45 794.72,-1962.23 38.79,-93.59 77.46,-187.32 116.14,-280.89 43.55,-30.33 95.32,-15.97 142.72,-25.76 114.6,-23.41 227.33,-13.23 338.74,22 77.86,24.56 156.76,45.86 235.19,68.62z"/>
   <path class="fil3" d="M2079.04 6475.15c7.64,38.26 -11.97,70.47 -24.97,103.33 -107.24,270.53 -216.34,540.28 -323.32,810.97 -61.38,155.1 -119.52,311.39 -179.72,466.93 -10.53,27.31 -21.68,55.05 -37.29,79.61 -14.59,22.96 -27.12,45.25 -22.55,72.72 4.88,29.74 -21.26,37.24 -35.23,53.62 -12.07,4.88 -24.61,8.88 -36.17,14.89 -144.73,74.73 -180.43,246.49 -75.14,371.25 24.91,29.48 55.27,56.29 87.73,77.15 51.98,33.33 106.41,63.48 162.2,89.93 114.79,54.5 231.48,104.83 346.63,158.49 35.09,16.29 67.7,37.91 101.39,57.12 8.58,48.48 -7.5,82.59 -56.69,97.33l-2.21 -0.66c-12.23,-4.37 -24.45,-8.79 -36.72,-13.21 -163.14,-75.1 -326.26,-150.24 -489.54,-225.07 -14.53,-6.62 -31.01,-16.85 -45.35,-15 -52.85,6.58 -95.79,-18.43 -138.72,-40.58 -66.73,-34.3 -132.46,-70.87 -196.3,-110.21 -215.56,-132.78 -286.29,-328.52 -245.11,-572.34 25.68,-151.82 63.13,-300.93 113.77,-445.82 128.25,-366.88 261.22,-732.01 392.3,-1097.76 27.07,-18.49 54.55,-34.87 89.73,-32.31 45.45,3.23 91.13,3.7 136.52,6.83 29.22,2.01 58.7,11.66 87.27,9.2 130.77,-11.3 251.1,26.45 370.48,71.91 17.92,6.83 37.96,7.91 57.01,11.66z"/>
   <path class="fil4" d="M1799.61 9678.02c4.02,5.14 7.96,10.32 11.92,15.42 33.02,-24.5 69.75,-42.63 100.56,-71.6 35.34,-33.24 77.25,-60 109.92,-95.48 50.23,-54.55 95.32,-113.97 141.91,-171.86 5.81,-7.25 8.78,-17.51 10.89,-26.92 4.11,-18.02 -0.67,-31.78 -29.44,-35.64 -28.51,28.71 -63.68,58.03 -91.32,93.27 -70.06,89.48 -140.26,178.44 -222.09,257.64 -11.4,11.04 -21.62,23.37 -32.37,35.18zm528.57 -349.47c26.86,-12.11 44.38,-14.69 52.75,-24.81 47.51,-57.42 96.09,-114.32 137.85,-175.8 38.01,-55.78 75.71,-113.42 85.11,-183.46 2.31,-17.63 -0.73,-32.47 -17.01,-41.51 -17.56,-9.71 -32.15,-1.08 -42.27,12.27 -15.52,20.7 -30.92,42.12 -42.63,65.18 -55.63,109.66 -109.97,219.98 -173.81,348.13zm401.44 -102.72c-61.43,92.25 -120.96,185.82 -184.8,276.42 -96.51,136.78 -211.46,256.24 -339.71,364.46 -102.77,86.76 -209.81,166.57 -323.17,238.07 -270.31,170.56 -558.92,297.69 -872.17,365.95 -19.06,4.16 -38.16,9.65 -57.47,10.93 -35.19,2.42 -60.25,-15.61 -66.62,-44.68 -6.62,-30.4 7.56,-56.69 40.01,-69.08 21.27,-8.17 43.4,-16.02 65.75,-18.94 87.15,-11.41 160.5,-52.2 229.08,-103.81 90.95,-68.41 177.55,-141.24 245.29,-250.08 -45.03,7.96 -77.5,21.27 -108.93,36.63 -118.5,58.19 -245.21,88.8 -374.01,112.57 -12.8,2.37 -25.89,3.55 -38.93,4.16 -249.01,11.97 -495.86,-4.47 -739.36,-59.88 -31.23,-7.15 -65.23,-10.02 -88.49,-37.18 26.09,1.38 53.83,-2.52 77.96,5.12 51.41,16.19 103.39,14.18 155.58,14.24 84.9,0.1 168.98,-8.02 253.52,-15.83 124.86,-11.5 244.48,-37.59 363.43,-74 157.27,-48.13 302.89,-122.3 449.11,-195.69 120.81,-60.71 228.2,-141.2 326.2,-232.31 88.35,-82.13 173.24,-167.91 249.11,-263.39 166.56,-209.61 304.32,-432.72 368,-695.95 18.71,4.72 38.01,7.8 56.04,14.49 127.54,47.24 254.86,95.32 382.18,143.19 15.16,5.71 30.88,10.32 45.25,17.51 38.68,19.31 49.92,45.56 38.06,88.08 -4.31,15.56 -11.04,30.46 -16.79,45.61 -18.45,48.44 -38.16,96.51 -54.7,145.61 -4.57,13.51 0.25,30.09 0.71,45.31 -35.9,38.57 -74.57,75.55 -80.12,132.46z"/>
   <path class="fil3" d="M2729.63 9225.84c5.55,-56.91 44.22,-93.89 80.12,-132.46 18.69,3.23 42.53,0.45 54.96,11.04 35.9,30.76 78.43,46.28 120.59,63.48 93.83,38.17 187.52,76.48 281.72,113.56 702.06,276.23 1406.34,546.9 2097.41,850.2 30.15,13.19 58.05,26.86 93.33,11.14 15.36,-6.78 38.12,-1.38 56.24,3.44 28.36,7.45 55.83,18.39 83.16,29.07 446.84,175.15 893.59,350.44 1340.34,526.06 24.08,9.49 53.83,16.48 69.03,34.61 36.62,43.72 77.86,37.85 123.42,27.63 38.36,-81.4 80.54,-158.65 111.25,-240.17 23.12,-61.47 59.27,-107.59 110.94,-144.47 49.15,-28.61 101.59,-7.09 152.49,-9.97 54.86,51.53 56.77,111.36 30.92,177.73 -24.5,62.81 -58.14,122.34 -70,190.13 -2.58,14.69 -15,28.1 -24.34,41 -7.51,10.37 -24.56,18.84 -24.91,28.61 -2.31,65.53 -51.57,75.29 -99.09,90.75 -34,11.09 -66.77,26.72 -99.12,42.38 -31.19,15.14 -58.66,18.13 -92.76,2.05 -68.41,-32.26 -141.6,-48.5 -218.35,-47 -22.19,0.41 -46.94,-1.6 -66.36,-10.99 -130.35,-63.54 -270.83,-96.82 -407.97,-140.02 -58.4,-18.43 -121,-24.34 -165.74,-76.73 -15,-17.51 -47.26,-20.3 -71.65,-29.74 -860.37,-332.46 -1721.75,-662.36 -2580.47,-999.15 -243.36,-95.42 -478.8,-211.15 -718.19,-316.9 -29.44,-13 -60.35,-28.67 -91.37,-30.66 -45.21,-2.88 -62.56,-28.91 -75.61,-64.61z"/>
   <path class="fil3" d="M4603.41 64.77c15.42,26.05 4.32,49.05 -5.59,74.05 -62.82,158 -125.06,316.2 -185.98,474.95 -76.13,198.25 -150.64,397.18 -226.25,595.71 -7.96,20.99 -18.08,41.19 -29.18,66.14 -70.93,-22.84 -138.47,-44.22 -205.81,-66.4 -40.47,-13.41 -81.36,-13.5 -123.78,-15.87 -107.81,-5.93 -214.69,8.11 -321.98,5.4 -25.58,-0.68 -44.43,-8.17 -52.5,-34.01 86.34,-222.71 177.77,-443.36 283.53,-657.64 33.18,-67.39 72.62,-131.79 111.86,-195.95 98.51,-161.11 246.49,-240.72 431.96,-248.59 107.7,-4.57 215.81,1.09 323.73,2.21z"/>
   <path class="fil3" d="M2574.11 5268.86c-19.42,55.27 -36.88,111.31 -58.66,165.64 -91.01,227.43 -183.16,454.35 -275.3,681.32 -10.73,26.45 -24.28,51.73 -38.67,82.09 -19.89,-7.09 -34.88,-11.72 -49.36,-17.67 -134.37,-55.47 -273.98,-82.38 -419.69,-82.43 -82.84,0 -161.03,23.47 -241.09,37.8 1.54,-8.11 2.97,-16.28 4.41,-24.34 3.76,-8.62 7.45,-17.41 11.15,-26.13 96.86,-264 193.83,-527.95 290.5,-791.95 16.89,-45.98 32.86,-92.2 49.25,-138.31 51.1,-7.4 102.47,-13.51 153.21,-22.65 56.14,-10.12 108.38,-0.73 161.03,19.82 38.93,15.11 79.86,28.46 121.1,33.91 75.14,9.86 146.07,28.55 208.63,72.32 26.66,18.59 54.29,17.92 83.47,10.63z"/>
   <path class="fil3" d="M4046.14 1557.36c-51.31,130.9 -102.06,262.08 -154.14,392.69 -63.07,158 -127.18,315.57 -191.27,473.25 -8.49,20.75 -19.63,40.43 -34.11,69.96 -26.8,-47.3 -66.67,-59.94 -107.75,-68.31 -79.87,-16.34 -160.25,-30.72 -240.27,-46.49 -35.6,-7.02 -70.47,-10.05 -106.73,-2.14 -18.64,4.11 -39.81,3.64 -58.44,-0.67 -46.44,-10.79 -89.99,-10.42 -133.03,13.51 -8.53,4.7 -23.99,-3 -36.21,-5.01 7.5,-21.34 13.7,-43.39 22.74,-64.13 125.89,-290.2 227.02,-589.78 336.28,-886.15 30.2,-18.37 62.77,-14.59 95.48,-10.28 32.41,4.21 64.76,9.87 97.39,11.78 134.86,7.91 266.81,25.73 387.63,93.41 37.13,20.81 78.01,34.37 122.44,28.58z"/>
   <path class="fil5" d="M2359 8593.57c-63.68,263.23 -201.44,486.34 -368,695.95 -75.87,95.48 -160.76,181.26 -249.11,263.39 -98,91.11 -205.39,171.6 -326.2,232.31 -146.22,73.39 -291.84,147.56 -449.11,195.69 -118.95,36.41 -238.57,62.5 -363.43,74 -84.55,7.8 -168.63,15.93 -253.52,15.83 -52.2,-0.06 -104.17,1.95 -155.58,-14.24 -24.14,-7.64 -51.87,-3.74 -77.96,-5.12 -23.22,-47.97 -19.16,-72.01 18.02,-85.22 21.11,-7.5 44.43,-11.09 66.93,-11.81 52.34,-1.81 104.72,-0.98 157.17,-0.77 226.09,1.02 441.35,-47.93 646.96,-140.99 192.14,-87.01 365.64,-202.11 527.54,-337.6 159.77,-133.74 290.65,-291.78 411.4,-459.53 18.45,-25.68 28.1,-57.83 41.76,-86.96 49.25,-14.73 65.33,-48.85 56.75,-97.33 14.08,-17.46 31.8,-33.02 41.51,-52.59 26.09,-52.54 48.89,-106.73 72.78,-160.36 7.95,-17.82 13.82,-36.78 23.62,-53.42 14.75,-24.75 40.43,-34.4 67.64,-24.24 24.2,9.1 46.65,22.76 69.86,34.42 13.61,6.36 27.17,12.74 40.78,19.1l0.2 -0.51z"/>
   <path class="fil6" d="M9810.74 2070.4c-8.21,20.4 -19.93,33.34 -44.48,23.47 -60.71,-24.18 -121.77,-47.36 -182.34,-71.91 -345.14,-139.96 -690.46,-279.41 -1035.14,-420.38 -299.3,-122.5 -597.6,-247.46 -896.78,-370.13 -365.76,-149.87 -731.6,-299.48 -1098.22,-447.32 -151.47,-61 -305.09,-116.68 -457.34,-175.69 -32.51,-12.64 -71.7,-18.45 -81.1,-62.05 37.29,12.07 74.94,22.95 111.66,36.51 770.54,283.21 1530.85,592.56 2290.38,903.69 432.67,177.33 863.5,359.21 1295.05,539.28 33.18,13.86 65.53,29.63 98.3,44.52z"/>
   <path class="fil1" d="M2079.04 6475.15c-19.06,-3.76 -39.09,-4.83 -57.01,-11.66 -119.37,-45.45 -239.7,-83.21 -370.48,-71.91 -28.57,2.46 -58.05,-7.19 -87.27,-9.2 -45.4,-3.13 -91.07,-3.6 -136.52,-6.83 -35.18,-2.56 -62.66,13.82 -89.73,32.31 -14.43,-17.86 -28.91,-35.7 -43.44,-53.42 25.16,-14.89 50.74,-29.12 75.29,-44.78 75.93,-48.58 158.87,-73.09 248.6,-74.16 65.08,-0.71 130.1,-0.98 195.12,0.1 98.61,1.75 192.34,27.63 283.94,61.69 36.76,13.71 52.49,42.32 38.06,76.99 -14.65,35.39 -37.34,67.38 -56.55,100.88z"/>
   <path class="fil1" d="M2574.11 5268.86c-29.18,7.29 -56.81,7.96 -83.47,-10.63 -62.56,-43.77 -133.49,-62.46 -208.63,-72.32 -41.25,-5.45 -82.17,-18.8 -121.1,-33.91 -52.65,-20.54 -104.89,-29.93 -161.03,-19.82 -50.74,9.14 -102.1,15.26 -153.21,22.65 -27.17,-4.99 -58.92,8.26 -80.38,-19.93 57.89,-29.24 116.33,-57.48 173.6,-87.78 71.34,-37.75 151.52,-49.68 226.96,-46.02 109.46,5.34 220.3,21.26 324.05,63.68 41.86,17.11 83.15,35.55 121.98,52.24 10.58,60.14 -14.02,105.96 -38.77,151.82z"/>
   <path class="fil1" d="M3573.56 2739.55c-78.43,-22.76 -157.33,-44.06 -235.19,-68.62 -111.41,-35.23 -224.14,-45.41 -338.74,-22 -47.41,9.78 -99.18,-4.57 -142.72,25.76 -14.54,-19.99 -29.13,-39.88 -43.71,-59.79 29.99,-12.03 60.8,-22.39 89.87,-36.47 135.08,-65.39 274.69,-96.67 424.56,-63.39 69.64,15.42 139.86,28.22 209.71,42.64 31.88,6.58 63.48,14.28 86.9,48.69 -16.34,42.94 -33.54,88.08 -50.7,133.19z"/>
   <path class="fil1" d="M4046.14 1557.36c-44.43,5.79 -85.32,-7.77 -122.44,-28.58 -120.81,-67.69 -252.76,-85.51 -387.63,-93.41 -32.63,-1.91 -64.98,-7.57 -97.39,-11.78 -32.71,-4.31 -65.28,-8.09 -95.48,10.28 -6.22,-13.21 -12.43,-26.28 -18.59,-39.46 92.7,-59.82 198.92,-77.24 304.83,-92.35 37.75,-5.37 78.02,-0.86 116.02,5.5 92.86,15.51 184.55,36.63 273.04,69.86 27.02,10.18 56.24,16.6 73.96,43.56 2.21,51.57 -26.96,92.35 -46.33,136.38z"/>
   <path class="fil7" d="M10276.8 4385.79c132.87,-365.23 265.75,-730.47 398.98,-1096.52 1.54,-0.52 6.46,-2.98 7.24,-2.01 4.11,4.83 7.15,10.58 10.53,15.93 -41.96,181.15 -101.03,357.21 -165.99,530.98 -74.02,198.2 -154.77,393.89 -232.57,590.61 -6.06,-13 -12.17,-25.99 -18.18,-38.99z"/>
   <path class="fil8" d="M10276.8 4385.79c6.01,13 12.13,25.99 18.18,38.99 -25.94,66.4 -50.86,133.23 -78.17,199.03 -46.02,110.94 -93.75,221.26 -140.73,331.85l-6.64 -0.2 -6.57 0.98c3.49,-18.91 4.16,-38.89 10.83,-56.61 61.64,-163.53 124.25,-326.81 187.06,-489.99 3.35,-8.78 10.58,-16.03 16.03,-24.04z"/>
   <path class="fil9" d="M9416.23 6474.18c69.19,-160.31 137.76,-320.86 208.07,-480.65 11.46,-25.94 30.56,-48.44 46.12,-72.53 -3.8,18.75 -4.57,38.79 -11.76,56.14 -68.05,164.93 -137.13,329.39 -206.36,493.79 -3.6,8.63 -11.09,15.67 -16.8,23.43 -6.42,-6.78 -12.84,-13.45 -19.26,-20.18z"/>
   <path class="fil10" d="M9416.23 6474.18c6.42,6.73 12.84,13.39 19.26,20.18 -60.92,150.08 -121.88,300.15 -182.79,450.29 -22.92,-19.26 -13.37,-40.58 -4.32,-62.2 51.63,-123.78 103.09,-247.57 154.44,-371.51 4.99,-12.01 9,-24.49 13.41,-36.76z"/>
   <path class="fil11" d="M10062.88 4956.43l6.57 -0.98 6.64 0.2c-52.7,131.18 -105.39,262.3 -158.16,393.44 -2.56,-15.21 -11.55,-32.93 -6.77,-45.31 40.93,-106.57 83.98,-212.27 127.42,-317.77 4.63,-11.3 16.03,-19.83 24.3,-29.58z"/>
   <path class="fil12" d="M8250.32 9381.67c29.32,-92.55 55.37,-186.34 104.56,-271.2 6.62,6.68 13.25,13.37 19.93,19.99 -34.56,90.4 -69.13,180.78 -103.71,271.18 -6.87,-6.67 -13.86,-13.29 -20.79,-19.98z"/>
   <path class="fil13" d="M8374.82 9130.46c-6.68,-6.62 -13.31,-13.31 -19.93,-19.99 16.13,-41.13 31.03,-82.78 48.8,-123.22 12.48,-28.3 20.89,-60.35 51.51,-77.03 -19.36,76.16 -41.65,151.26 -80.38,220.24z"/>
   <path class="fil14" d="M8250.32 9381.67c6.93,6.68 13.92,13.31 20.79,19.98 -17.09,59.13 -39.54,115.78 -75.71,166.21 -0.55,-67.58 26.72,-127.07 54.92,-186.18z"/>
   <path class="fil9" d="M9669.75 5922.29c1.5,-55.79 19.06,-104.07 64.92,-139.04 -15.61,49.15 -27.31,100.15 -64.92,139.04z"/>
   <path class="fil5" d="M1946.98 8914.63c12.27,4.41 24.49,8.84 36.72,13.21 -15.46,4.67 -28.2,1.59 -36.72,-13.21z"/>
   <path class="fil0" d="M1506.91 6085.11c-3.7,8.72 -7.4,17.51 -11.15,26.13 3.76,-8.78 7.45,-17.46 11.15,-26.13z"/>
   <path class="fil15" d="M3250.8 8340.93c-18.65,-5.81 -70.41,-28.67 -88.19,-36.27 -161.9,-69.08 -323.58,-138.62 -485.16,-208.47 -11.56,-5.04 -21.74,-13.35 -36.78,-22.81 12.32,-53.83 19.16,-109.03 38.26,-159.53 14.95,-39.3 18.53,-76.06 8.31,-114.28 -21.15,-78.69 -41.09,-158 -68.66,-234.52 -36.17,-100.26 -102.32,-180.54 -185.47,-246.84 -46.63,-40.47 -93.27,-80.95 -144.94,-125.69 7.08,-60.92 40.78,-118.13 65.27,-177.71 139.1,-339.3 279.57,-677.98 420.97,-1016.35 114.84,-274.94 232.16,-548.86 347.31,-823.63 77.15,-184.19 152.44,-369.19 228.2,-554 7.44,-18.13 18.29,-38 16.58,-55.98 -5.34,-55.83 21.37,-102.16 40.37,-149.87 171.76,-432 345.2,-863.39 518.03,-1294.99 165.54,-413.37 330.31,-827.08 496.62,-1240.13 56.24,-139.65 115.88,-278.01 174.84,-416.66 11.25,-26.54 26.56,-51.45 37.34,-72 85.97,2.82 164,6.16 242.06,7.89 77.62,1.72 150.38,-19.66 213.98,-61.99 78.88,-52.49 153.94,-110.88 229.63,-167.99 24.15,-18.33 40.02,-43.52 37.3,-76.07 -4.37,-52.49 28.14,-90.65 47.45,-137.6 78.29,16.64 145.05,51.73 214.39,78.74 408.69,158.97 816.6,319.88 1224.99,479.73 69.8,27.43 140.37,52.84 210.63,79.14 148.75,59.43 297.02,119.92 446.29,178.06 642.85,250.45 1286.05,500.11 1928.9,750.5 76.16,29.64 151.31,62.04 226.56,93.94 17.56,7.45 33.89,17.94 51.57,27.53 7.5,42.24 -20.63,80.96 -27.05,119.39 -19.16,113.93 -20.18,270.51 21.52,381.76 41.09,109.82 117.65,157.94 209.6,230.98 22.9,18.13 46.27,35.64 71.08,54.64 4.11,55.57 -17.78,102.93 -38.42,150.54 -33.28,17.21 -100.47,82.77 -129.85,70.09 -45.05,-19.42 -150.22,-53.55 -192.28,-78.56 -163.05,-97.23 -221.04,294.48 -375.94,-639.97 0.31,-26.18 0.92,-52.54 -1.14,-78.52 -3.33,-42.75 -19.32,-59.63 -60.2,-63.22 -25.99,-2.34 -52.33,-0.33 -78.43,-1.66 -29.32,-1.54 -58.5,-4.31 -87.66,-7.19 -38.83,-3.76 -77.56,-11.46 -116.34,-11.71 -202.88,-1.24 -280.34,80.48 -483.22,80.7 -26.15,0 -52.54,-0.6 -78.37,2.56 -96.88,11.5 -193.64,23.72 -290.2,37.17 -67.64,9.52 -135.4,19.07 -202.21,32.77 -118.13,24.4 -235.66,51.63 -353.22,78.42l-444.33 143.87c-36.66,12.17 -74.67,21.21 -109.7,37.04 -108.83,49.15 197.03,57.48 88.29,106.75l-214.73 126.55c-101.03,47.91 -187.32,118.64 -279.83,179.87 -169.64,112.24 -318.44,249.68 -467.44,385.89 -163.89,149.87 -196.59,369.79 -340.05,539.95 -132.87,157.74 -255.27,322.4 -369.75,493.14 -110.94,165.48 -219.73,332.2 -320.3,504.83 -100.56,172.47 -189.31,350.95 -286.54,524.92 -47.77,85.36 -83.88,177.24 -124.55,266.46 -62.4,136.78 -390.71,303.79 -453.43,440.42 -96.96,211.26 213,208.17 132.98,425.83 -55.17,150.24 -703.82,273.71 -753.34,425.95 -53.62,164.78 -111.41,332.43 -163.38,497.77 -19.51,62.3 -81.84,124.22 -98.68,187.33 -6.01,22.55 -19.36,48.51 -39.5,53.08z"/>
   <path class="fil16" d="M2318.01 8574.98c-23.21,-11.66 -45.66,-25.32 -69.86,-34.42 -27.21,-10.16 -52.89,-0.51 -67.64,24.24 -9.8,16.64 -15.67,35.6 -23.62,53.42 -23.89,53.62 -46.69,107.81 -72.78,160.36 -9.71,19.57 -27.43,35.13 -41.51,52.59 -33.69,-19.2 -66.3,-40.82 -101.39,-57.12 -115.15,-53.67 -231.84,-104 -346.63,-158.49 -55.79,-26.45 -110.23,-56.61 -162.2,-89.93 -32.47,-20.86 -62.82,-47.67 -87.73,-77.15 -105.29,-124.76 -69.59,-296.51 75.14,-371.25 11.56,-6.01 24.1,-10.02 36.17,-14.89 123.07,-2.93 238.63,28.2 351.99,73.39 81.87,32.67 165.7,60.41 248.64,90.35 35.5,15.97 70.53,32.92 106.41,47.81 377.83,156.86 754.46,316.9 1134.12,469.19 440.43,176.69 883.89,345.87 1325.45,519.68 204.06,80.34 406.58,164.36 610.18,245.88 48.48,19.41 98.2,35.38 147.35,53 19.63,10.99 38.38,24.1 59.02,32.67 255.21,106.57 510.84,212.13 766.07,318.75 86.9,36.33 172.94,74.83 259.42,112.34 98.36,38.16 196.73,76.36 295.03,114.54 21.31,13.7 50.13,22.64 62.36,42.11 25.22,40.27 62.66,54.04 103.39,64.82 127.89,33.75 255.78,67.23 383.99,99.54 20.28,5.14 36.88,10.63 42.73,32.61 -51.63,36.83 -87.78,82.96 -110.9,144.43 -30.71,81.52 -72.88,158.77 -111.25,240.17 -45.56,10.22 -86.8,16.09 -123.42,-27.63 -15.2,-18.13 -44.94,-25.11 -69.03,-34.61 -446.75,-175.61 -893.5,-350.91 -1340.34,-526.06 -27.33,-10.69 -54.8,-21.62 -83.16,-29.07 -18.13,-4.82 -40.88,-10.22 -56.24,-3.44 -35.28,15.72 -63.17,2.05 -93.33,-11.14 -691.07,-303.3 -1395.35,-573.97 -2097.41,-850.2 -94.2,-37.08 -187.89,-75.39 -281.72,-113.56 -42.16,-17.19 -84.69,-32.71 -120.59,-63.48 -12.43,-10.58 -36.27,-7.8 -54.96,-11.04 -0.47,-15.21 -5.29,-31.8 -0.71,-45.31 16.54,-49.09 36.25,-97.17 54.7,-145.61 5.75,-15.16 12.48,-30.05 16.79,-45.61 11.87,-42.53 0.63,-68.78 -38.06,-88.08 -14.37,-7.19 -30.09,-11.81 -45.25,-17.51 -127.32,-47.87 -254.64,-95.95 -382.18,-143.19 -18.02,-6.68 -37.33,-9.77 -56.04,-14.49l-0.2 0.51c-13.61,-6.36 -27.17,-12.74 -40.78,-19.1z"/>
   <path class="fil17" d="M2334.61 7596.01c44.68,38.42 67.07,86.13 65.94,145.93 -1.12,54.8 -24.91,92.66 -75.18,114.38 -34.52,14.89 -69.7,14.43 -105.5,7.13 -78.49,-54.5 -63.84,-134.76 -56.14,-211.71 1.34,-12.8 17.76,-26.76 30.56,-35.13 43.1,-28.3 90.91,-31.54 140.32,-20.6z"/>
   <path class="fil17" d="M4796.18 965.7c-0.67,-72.05 56.65,-142.05 120.39,-138.84 92.92,4.64 132.62,52.72 134.67,145.1 1.24,54.76 -74.57,131.54 -128.25,124.47 -67.48,-9 -132.52,-38.93 -126.81,-130.73z"/>
   <path class="fil18" d="M3218.24 8322.28c20.14,-4.57 35.64,-13.15 41.65,-35.7 16.85,-63.11 33.59,-126.3 53.1,-188.6 51.98,-165.34 104.68,-330.45 158.3,-495.23 49.52,-152.23 96.72,-305.4 151.88,-455.63 80.02,-217.66 155.83,-437.13 252.79,-648.38 62.72,-136.62 123.94,-273.96 186.34,-410.75 40.68,-89.22 76.79,-181.1 124.55,-266.46 97.23,-173.97 185.98,-352.45 286.54,-524.92 100.58,-172.63 209.36,-339.35 320.3,-504.83 114.48,-170.74 236.88,-335.4 369.75,-493.14 143.45,-170.15 289.99,-337.18 453.89,-487.05 149,-136.22 297.8,-273.66 467.44,-385.89 92.51,-61.22 178.8,-131.95 279.83,-179.87 415.75,-293.82 631.23,-351.83 1093.59,-458.47 117.57,-26.79 235.09,-54.01 353.22,-78.42 66.81,-13.7 134.57,-23.25 202.21,-32.77 96.56,-13.45 193.32,-25.67 290.2,-37.17 25.83,-3.16 52.22,-2.56 78.37,-2.56 202.88,-0.22 405.75,-0.79 608.64,0.45 77.51,0.5 202.49,13.35 282.44,20.56 40.88,3.58 56.87,20.47 60.2,63.22 2.05,25.97 1.44,52.34 1.14,78.52 -2.17,154.04 38.16,297.71 111.29,431.65 64,117.2 158.24,206.99 272.38,275.04 42.06,25.01 86.85,45.92 131.89,65.34 29.38,12.68 60.71,26.4 93.99,9.19 -32.98,105.96 -59.17,214.69 -99.95,317.52 -187.12,471.75 -380.74,940.95 -567.35,1412.86 -157.68,398.88 -309.56,800.02 -462.93,1200.53 -147.56,385.27 -293.84,771 -440.42,1156.62 -86.13,226.46 -167.85,454.66 -258.66,679.21 -109.25,270.18 -225.95,537.21 -339.65,805.52 -2.48,5.75 -7.86,10.26 -11.92,15.35 -71.36,-89.9 -352.33,-94.82 -472.93,-97.82 -312.76,-7.66 -551.23,117.48 -712.17,357.5 -36.88,55.21 -41.33,129.21 -64.6,189.81 -43.5,-12.99 -117.81,-39.62 -159.88,-56.26 -583.38,-230.92 -1165.92,-464 -1749.69,-694 -319.27,-125.73 -640.64,-246.12 -960.62,-369.81 -131.08,-50.65 -261.24,-103.65 -391.59,-156.09 -11.92,-4.73 -22.49,-12.64 -33.59,-19.06z"/>
   <path class="fil15" d="M6484.04 9600.67c23.27,-60.6 34.05,-126.14 70.93,-181.35 14.43,-21.52 27.37,-44.99 45.5,-63.03 60.04,-59.63 116.55,-122.65 187.48,-171.29 140.37,-96.19 289.83,-160.81 463.48,-156.56 45.72,1.14 91.43,-0.1 137.15,0.22 127.83,0.82 242.37,45.19 350.34,109.34 10.37,6.17 16.32,19.83 24.39,29.99 -12.11,33.7 -23.57,67.66 -36.67,100.98 -4.57,11.66 -12.99,21.93 -22.29,37.04 -51.98,-2.31 -103.65,-4.63 -155.36,-6.99 -55,-2.58 -110.74,7.6 -164.72,-14.44 -13.15,-5.33 -31.74,1.44 -47.61,4.12 -28.51,4.72 -57.16,9.04 -85.06,16.38 -24.81,6.58 -50.7,13.35 -72.32,26.35 -56.08,33.53 -110.8,69.43 -164.56,106.57 -51.93,35.74 -94.2,79.04 -112.28,143.19 -16.07,57.22 -54.96,102.02 -91.62,154.61 -111.2,-46.17 -225.58,-73.86 -326.77,-135.14z"/>
   <path class="fil2" d="M10328.63 3375.92c37.49,24.14 31.22,59.98 25.67,90.3 -18.33,99.59 -42.47,197.22 -84.59,290.71 -92.8,205.71 -185.67,411.3 -286.8,613.16 -76.22,152.03 -147.09,306.72 -221.32,459.74 -9.41,19.31 -12.74,45.45 -40.52,51.31 -16.39,-13.76 -8.12,-28.91 -2.58,-43.5 31.64,-82.33 62.36,-165.07 95.58,-246.79 113.36,-278.74 216.09,-561.33 308.28,-847.83 33.12,-102.93 73.86,-202.42 132.72,-293.84 19.67,-30.46 38.36,-60.2 73.55,-73.25z"/>
   <path class="fil2" d="M9345.56 5762.81c15.16,27.01 10.79,56.29 3.54,83.77 -30.97,116.74 -64.61,232.41 -117.71,342.01 -86.96,179.21 -169.19,360.66 -254.66,540.63 -48.95,103.09 -100.05,205.3 -150.91,307.56 -9.65,19.47 -22.74,37.13 -33.28,54.13 -24.18,-8.21 -19.77,-20.44 -15.2,-32.71 74.37,-198.68 147.98,-397.64 223.43,-595.96 61.48,-161.64 122.6,-323.52 189.17,-483.11 26.13,-62.77 65.43,-120.29 101.29,-178.58 11.09,-18.04 24.65,-39.5 54.34,-37.75z"/>
   <path class="fil19" d="M10051.58 3112.53c-28.51,0.87 -59.74,-21.21 -85.26,-52.95 -32,-39.75 -43.56,-113.34 -23.16,-146.63 34,-55.31 84.79,-80.19 148.43,-74.18 17.82,1.69 37.65,12.49 51.2,24.93 40.68,37.43 56.18,87.97 55.33,141.14 -0.87,55.51 -68.84,108.06 -146.54,107.7z"/>
   <path class="fil19" d="M7264.33 9674.53c11.24,-21.05 18.43,-39.03 29.63,-54.03 7.5,-9.96 21.31,-14.89 31.13,-23.37 54.8,-47.14 80.02,-40.94 136.16,8.58 35.23,31.19 49.57,76.84 48.6,124.29 -0.77,40.33 -27.59,65.79 -60.46,83 -50.38,26.29 -117.46,9.3 -146.28,-39.91 -17.66,-30.15 -26.19,-65.59 -38.77,-98.57z"/>
   <path class="fil20" d="M6759.64 10139.93c-98.3,-38.17 -196.67,-76.38 -295.03,-114.54 15.26,-2.62 32.87,-11.56 45.45,-6.89 73.2,27.07 145.56,56.39 217.21,87.41 13.26,5.65 21.74,22.35 32.37,34.01z"/>
   <path class="fil21" d="M2328.19 9328.56c63.84,-128.15 118.18,-238.47 173.81,-348.13 11.71,-23.06 27.11,-44.48 42.63,-65.18 10.12,-13.35 24.71,-21.98 42.27,-12.27 16.28,9.04 19.32,23.88 17.01,41.51 -9.41,70.04 -47.1,127.68 -85.11,183.46 -41.76,61.48 -90.34,118.38 -137.85,175.8 -8.37,10.12 -25.89,12.7 -52.75,24.81z"/>
   <path class="fil22" d="M1799.61 9678.02c10.74,-11.81 20.97,-24.14 32.37,-35.18 81.82,-79.2 152.03,-168.16 222.09,-257.64 27.63,-35.23 62.81,-64.56 91.32,-93.27 28.77,3.86 33.54,17.62 29.44,35.64 -2.11,9.41 -5.08,19.67 -10.89,26.92 -46.59,57.89 -91.68,117.3 -141.91,171.86 -32.67,35.48 -74.59,62.24 -109.92,95.48 -30.81,28.97 -67.54,47.1 -100.56,71.6 -3.96,-5.1 -7.91,-10.28 -11.92,-15.42z"/>
   <path class="fil4" d="M2318.01 8574.98c13.61,6.36 27.17,12.74 40.78,19.1 -13.61,-6.36 -27.17,-12.74 -40.78,-19.1z"/>
   <path class="fil4" d="M6525.95 3653.4c3.73,-4.19 8.91,-7.77 11.04,-12.74 76.93,-176.12 153.59,-352.33 230.02,-528.69 4.31,-10.09 5.94,-21.36 10.32,-37.8 -131.02,-47.06 -259.64,-93.21 -389.43,-139.84 0,-18.45 -4.51,-34.21 0.68,-45.53 30.73,-66.96 45.15,-141.78 93.56,-203.47 69.8,16.57 127.71,54.39 189.55,82.65 62.23,28.43 134.35,50.38 201.28,82.48 59.85,-121.56 82.94,-241.07 144.73,-361.54 86.53,2.8 157.11,55.57 234.71,62.18 23.03,28.35 6.26,47.78 -4.24,67.19 -49.21,90.78 -99.11,181.22 -148.32,272.04 -6.86,12.64 -12.68,25.86 -19.44,40.93 -2.43,5.43 12.88,17.82 10.09,23.82 71.12,26.72 119.71,43.98 185.46,69.86 63.16,24.88 133.86,28.17 197.9,66.89 -17.7,50.33 -34.61,98.1 -51.47,145.88 -10.32,23.06 -20.69,46.05 -30.87,69.17 -17.81,40.56 -32.92,43.98 -77.53,17.22 -5.68,-5.95 -10.26,-14.25 -17.21,-17.49 -75.16,-35.18 -249.58,-169.48 -311.1,-126.56 -38.99,110.62 -94.53,222.87 -132.98,333.68 -16.36,39.38 -34.43,78.1 -48.8,118.21 -31.83,88.52 -61.51,177.78 -92.8,266.54 -7.47,21.02 -17.67,41 -27.68,63.84 -16.99,-1.98 -31.99,-0.44 -43.98,-5.72 -62.44,-27.36 -124.38,-55.97 -185.83,-85.48 -6.01,-2.84 -7.76,-14.43 -10.42,-19.8 22.45,-54.57 44.03,-106.94 65.58,-159.35 5.77,-13.19 11.57,-26.4 17.35,-39.6l-0.17 1.02z"/>
   <path class="fil23" d="M1424.52 8620.84c-1.69,1.24 -3.9,2.88 -6.11,4.51 1.91,2.07 3.7,5.5 5.81,5.66 2.05,0.2 4.41,-2.94 6.67,-4.57 -2.1,-1.85 -4.15,-3.7 -6.36,-5.61zm-137.64 1509.62c2.2,-2.2 6.52,-4.88 6.16,-6.46 -1.03,-4.63 -3.96,-8.84 -6.16,-13.21 -2.17,2.15 -6.52,4.83 -6.11,6.48 0.98,4.62 3.95,8.84 6.11,13.19zm172.73 -1488.05c8.11,6.93 13.35,13.86 20.28,17.09 154.04,70.42 308.22,140.42 462.52,210.34 5.75,2.62 13.25,5.02 18.8,3.49 7.96,-2.31 19.83,-7.35 20.95,-13 1.44,-7.19 -4.98,-17.15 -10.48,-23.94 -3.58,-4.51 -11.5,-5.59 -17.56,-8.01 -157.27,-62.82 -314.54,-125.69 -471.91,-188.03 -5.24,-2.11 -12.38,0.98 -22.6,2.05zm1142.58 -3612.6c-156.6,-63.94 -308.42,-97.79 -465.39,-108.12 -82.27,-5.39 -162.92,4.78 -239.44,37.55 -39.5,16.89 -75.77,38.83 -99.28,76.32 -14.65,23.22 -20.66,47.51 4.15,76.12 41.2,0 86.55,2.11 131.65,-0.36 186.69,-10.26 362.98,25.78 528.25,114.6 15.77,8.53 31.13,23.63 58.09,14.53 32.1,-62.77 58.8,-131.22 81.97,-210.63zm1479.75 -3720.09c-14.28,-9.81 -23.89,-20.09 -35.54,-23.78 -156.35,-50.24 -315.73,-86.35 -480.86,-83.06 -51.45,0.98 -104.1,11.62 -153.47,26.8 -52.43,16.23 -89.87,52.81 -96.09,112.49 -4,38.44 13.1,66 50.03,70.99 35.54,4.72 71.75,5.69 107.65,6.06 155.73,1.54 305.05,32.41 447.26,96.34 19.93,9 40.74,15.94 67.54,26.25 32.31,-80.22 62.62,-155.41 93.49,-232.09zm-2777.14 5045.64c91.37,-10.12 175.35,-22.09 259.64,-28.04 81.87,-5.71 163.06,3.13 243.91,20.24 83.37,17.66 157.37,57.22 235.7,98.61 37.08,-75.3 68.05,-144.84 83.98,-223.37 -121.93,-47.62 -242.38,-74.69 -365.9,-92.2 -85.67,-12.11 -169.85,-8.74 -254.09,6.89 -51.82,9.61 -101.7,25.62 -145.51,55.94 -52.95,36.51 -80.75,83.72 -57.73,161.94zm2298.69 -3860.92c-189.78,-87.41 -407.34,-107.01 -549.26,-88.71 -58.34,7.48 -116.33,20.09 -168.16,50.9 -44.32,26.29 -77.03,60.81 -80.48,115.7 -1.79,29.24 13.57,54.29 42.38,56.46 42.22,3.13 85.2,4.16 127.18,-0.32 166.76,-17.88 326.45,7.34 480.65,71.86 17.46,7.38 35.44,13.57 57.36,21.88 39.97,-75.24 69.96,-149.73 90.34,-227.78zm-536.93 -180.96c99.91,8.21 195.12,10.02 288.08,25.48 95.17,15.81 188.15,44.94 288.97,69.94 109.7,-275.71 219.2,-550.79 327.95,-824.04 -101.81,-79.51 -442.69,-129.39 -583.54,-94.15 -54.6,109.6 -306.88,754.05 -321.47,822.77zm-1175.01 2873.64c-11.04,14.38 -16.44,18.96 -18.85,24.77 -109.81,266.1 -219.61,532.32 -328.7,798.78 -5.3,12.94 -4.32,28.45 -7.19,49.41 219.83,-23.69 421.93,22.8 620.75,97.12 8.49,-15.26 16.09,-25.89 20.7,-37.75 104.62,-264.72 209,-529.49 312.79,-794.47 4.37,-11.2 3.14,-24.55 4.88,-40.62 -195.07,-85.38 -393.01,-127.54 -604.37,-97.24zm856.3 4034.58c29.07,14.79 48.48,26.05 68.94,34.93 204.25,88.24 407.19,179.78 613.31,263.39 621.48,252.28 1244.03,502.06 1866.65,751.52 406.93,163.08 811.87,331.34 1225.8,476.7 139.03,48.79 278.78,95.73 424.55,119.62 83.51,13.66 167.08,32.82 253.38,19.57 85.36,-13.05 143.71,-55.88 173.55,-138.84 34.32,-95.42 72.07,-189.58 107.87,-284.44 3.33,-8.72 3.17,-18.74 5.12,-31.33 -42.43,-7.54 -83.56,-14.79 -124.66,-22.07 -60.09,67.89 -98.81,142.83 -126.61,223.78 -13.82,40.17 -24.28,81.52 -37.9,121.77 -17.05,50.59 -43.77,67.9 -96.35,61.54 -22.55,-2.78 -44.94,-9.04 -66.46,-16.44 -86.6,-29.85 -173.91,-57.99 -258.92,-91.84 -234.06,-93.33 -465.96,-192.04 -700.72,-283.47 -609.77,-237.49 -1220.52,-472.38 -1831,-708.08 -451.73,-174.42 -903.56,-348.49 -1355.44,-522.5 -33.18,-12.78 -67.07,-23.83 -104.26,-36.98 -12.07,20.81 -21.64,37.14 -36.83,63.17zm149.67 -6518.29c-289.67,710.04 -624.56,1401.78 -870.69,2129.12 104.62,12.58 206.01,18.39 304.48,38.36 101.03,20.5 199.19,54.9 305.13,85.1 288,-728.52 576.18,-1457.65 866.34,-2191.51 -197.19,-89.06 -396.89,-88.04 -605.26,-61.08zm-1870.29 7689.4c76.36,2.62 148.64,-18.84 220.7,-38.98 303.12,-84.81 576.63,-228.71 826.87,-418.08 290.15,-219.48 508.48,-497.49 666.42,-824.06 25.58,-52.85 47.61,-107.51 71.24,-161.23 11.3,0.06 22.55,0.16 33.75,0.2 -7.24,34.88 -14.53,69.75 -22.45,107.87 26.19,11.2 49.62,22.44 73.82,31.38 131.95,49.05 264.82,95.64 396.04,146.48 589.13,228.1 1177.79,457.44 1766.65,686.35 546.08,212.27 1096.42,413.72 1636.49,641.47 111.55,46.98 225.38,88.75 338.63,131.53 23,8.68 48.32,11.25 69.94,16.07 30.21,-58.91 53.68,-113.2 84.65,-162.86 30.46,-48.9 68.52,-93.22 106.68,-144.18 -15.87,-6.57 -27.01,-12.27 -38.77,-15.91 -100.05,-30.72 -202.11,-56.14 -300.01,-92.66 -162.45,-60.61 -323.52,-125.49 -483,-193.49 -665.55,-283.77 -1332.17,-564.83 -2005.42,-829.79 -520.86,-204.99 -1041.16,-411.56 -1559.81,-622.05 -348.8,-141.56 -693.85,-292.25 -1041.67,-436.43 -78.33,-32.41 -160.3,-57.06 -241.86,-80.83 -60.04,-17.47 -122.81,-21.17 -185.06,-9.77 -62.77,11.46 -107.45,46.95 -130.41,106.89 -23.27,60.86 -22.19,121.47 7.29,180.68 26.15,52.6 68.01,85.36 122.65,106.47 186.24,71.97 371.71,146.13 557.59,218.91 17.11,6.73 35.6,9.81 58.3,15.81 28.41,-60.45 56.04,-115.92 80.22,-172.83 6.89,-16.22 3.76,-36.62 4.98,-52.02 -30.04,-11.72 -53.93,-21.11 -77.8,-30.46 -0.06,-12.54 -0.16,-25.07 -0.26,-37.61 55.22,19.42 110.74,37.96 165.6,58.4 385.72,143.92 771.86,287.07 1156.87,433.14 125.22,47.46 247.67,102.21 370.78,155.11 25.74,11.09 57.12,18.18 66.73,52.38 -25.89,13.92 -50.64,5.45 -74.73,-2.56 -130.31,-42.99 -261.53,-83.26 -390.15,-130.77 -140.99,-52.12 -279.15,-111.76 -419.16,-166.46 -22.09,-8.68 -45.56,-29.07 -72.01,-7.91 -6.68,0.1 -13.41,0.2 -20.14,0.25 1.69,-35.84 -28.35,-40.78 -51.37,-50.07 -184.84,-74.89 -370.01,-148.9 -555.28,-222.92 -8.82,-3.49 -18.84,-3.96 -31.27,-6.42 -6.62,10.42 -15.67,20.4 -20.03,32.04 -68.01,182.75 -169.03,347.06 -286.85,500.68 -388.15,506.02 -887.13,824.26 -1530.59,894.32 -25.99,2.82 -51.87,7.03 -77.86,10.16 -26.92,3.25 -54.76,1.03 -101.86,12.49 36.78,15.04 53.48,23.57 71.09,28.81 113.2,33.38 228.41,56.24 345.91,68.87 256.2,27.59 502.57,-4.25 735.91,-117.87 44.07,-21.46 87.06,-45.25 131.24,-66.46 17.35,-8.37 36.31,-14.69 55.27,-17.86 21.97,-3.76 45.19,23.72 38.61,45.19 -4.67,15.26 -11.09,31.43 -21.26,43.3 -25.58,29.73 -52.08,58.86 -80.99,85.32 -107.04,97.94 -229.34,173.18 -357.94,239.24 -31.23,16.03 -60.46,35.95 -90.6,54.09 -10.38,2.26 -20.81,4.51 -34.21,7.4 17.11,15.56 29.64,11.5 41.92,1.22zm326.4 -1794.98c8.11,4.46 16.18,8.92 24.28,13.39 1.3,-3.74 2.58,-7.5 3.86,-11.3 -10.08,0 -20.08,0 -30.09,0 -12.27,-36.72 -50.24,-47.35 -74.79,-71.6 -147.09,-144.94 -104.46,-401.24 83.57,-485.87 23.63,-10.64 48.44,-18.59 73.03,-27.9 198.21,-505.6 396.06,-1010.34 593.39,-1513.58 -148.69,-98.77 -469.51,-129.23 -652.87,-64.31 -10.69,25.01 -23.27,51.57 -33.63,78.94 -83.53,220.25 -168.48,440.03 -249.31,661.2 -85.48,233.63 -163.54,469.76 -217.88,712.85 -16.38,73.39 -32.26,147.3 -28.1,223.47 7.7,139.29 60.25,253.22 183.83,327.74 103.34,62.4 211.92,113.97 324.72,156.96zm3215.87 -8442.2c1.14,-9.71 2.15,-19.42 3.7,-33.44 -205.75,-41.1 -403.76,-22.55 -593.07,68.52 -25.01,12.01 -48.5,34.4 -64,57.74 -28.91,43.43 -55.37,89.45 -75.91,137.4 -99.44,231.62 -196.71,464.24 -294.2,696.71 -4.47,10.64 -3.03,23.75 -4.16,33.85 98.61,12.74 193.33,20.81 286.29,38.22 95.44,17.86 189.21,44.83 286.96,68.62 13.96,-32.73 26.86,-62.52 39.28,-92.45 82.8,-199.65 164.93,-399.54 248.54,-598.82 37.81,-90.15 78.33,-179.11 118.7,-268.07 2.26,-5.04 14.22,-5.71 21.58,-8.37 4.41,7.54 13.86,16.44 12.32,22.33 -7.54,28.41 -17.19,56.3 -27.58,83.82 -147.88,392.1 -290.97,786.16 -445.05,1175.84 -843.83,2134.55 -1690.42,4267.97 -2535.89,6401.91 -7.91,20.08 -12.94,41.35 -20.85,66.87 21.62,5.3 36.92,10.79 52.63,12.64 95.23,11.15 185.37,41.35 274.12,75.04 104.07,39.5 207.4,81.1 310.07,124.05 552.92,231.03 1103,468.82 1661.62,686.03 433.39,168.57 868.42,332.88 1298.73,508.89 545.51,223.18 1086.87,456.51 1630.17,685.17 159.99,67.34 321.59,130.51 488.41,179.3 88.29,25.78 177.81,44.54 270.1,48.6 147.82,6.57 259.64,-55.17 339.25,-177.77 19.57,-30.15 38.48,-61.22 53.68,-93.69 34.67,-74.16 69.13,-148.48 99.59,-224.34 73.19,-182.34 144.95,-365.28 215.56,-548.59 335.61,-870.89 686.62,-1735.63 1046.04,-2596.87 172.83,-413.96 360.15,-822.05 527.13,-1238.33 230.3,-574.33 448.99,-1153.28 669.49,-1731.52 73.45,-192.6 138.84,-388.4 204.16,-583.93 37.75,-113.05 49.11,-230.26 33.65,-349.42 -9.45,-73.35 -36.88,-138.42 -81.21,-197.42 -45.91,-61.03 -99.48,-113.97 -167.39,-149.06 -101.7,-52.59 -202.77,-107.55 -308.42,-151.17 -393.44,-162.48 -789.64,-318.38 -1182.81,-481.36 -462.83,-191.88 -922.26,-391.92 -1385.59,-582.39 -705.72,-290.04 -1415.69,-569.34 -2134.86,-824.62 -188.19,-66.81 -374.58,-138.72 -563.08,-204.66 -73.92,-25.84 -151.42,-41.36 -227.07,-62.2 -28,-7.83 -43.36,4.88 -53.48,28.81 -8.98,-0.57 -18.08,-1.25 -27.17,-1.85zm-3196.71 9912.48c-7.72,3.17 -15.46,6.16 -22.96,9.7 -0.57,0.26 0.55,4.22 0.87,6.48 9.35,-3.44 18.64,-6.83 27.98,-10.22 1.81,-3.9 3.55,-7.76 5.4,-11.6 -3.8,1.89 -7.56,3.74 -11.3,5.65zm6229.06 363.39c-36.88,99.64 -72.05,194.66 -107.19,289.77 -6.78,18.39 -13.61,36.83 -19.73,55.47 -47.87,148.59 -159.06,208.79 -305.8,217.57 -92.35,5.5 -182.79,-12.22 -272.94,-28.86 -142.11,-26.35 -279,-71.19 -415.06,-118.76 -435.9,-152.33 -862.77,-328.3 -1291.85,-498.47 -575.15,-228.04 -1149.99,-456.75 -1723.82,-688.14 -227.68,-91.84 -452.08,-191.69 -678.13,-287.57 -29.53,-12.54 -59.84,-23.16 -93.83,-36.27 -18.49,27.69 -34.83,51.42 -50.33,75.71 -347.41,542.39 -844.09,875.73 -1460.08,1041.27 -98.45,26.5 -199.84,35.9 -301.39,40.42 -32.41,1.5 -65.23,-3.13 -97.63,-6.97 -20.91,-2.52 -36.21,-14.65 -40.93,-36.63 -4.79,-22.03 5.69,-43.2 30.87,-55.37 26.4,-12.78 54.13,-23 81.56,-33.73 122.08,-47.97 241.39,-101.75 353.06,-171.19 16.28,-10.12 30.2,-24.1 44.84,-36.83 1.38,-1.28 -0.47,-6.22 -1.03,-11.76 -3.8,-15.61 -17.98,-12.48 -30.05,-11.3 -9.65,0.87 -19.31,3.55 -28.61,6.42 -269.86,85.26 -542.44,82.07 -815.36,20.19 -98.62,-22.41 -195.23,-54.5 -291.74,-85.48 -27.07,-8.62 -52.49,-26.29 -74.88,-44.38 -20.5,-16.58 -12.94,-57.93 12.01,-66.04 30.72,-10.02 63.33,-16.09 95.54,-19.32 87.92,-8.88 176.33,-13.82 264.21,-23.27 481.36,-51.57 887.07,-261.32 1233.65,-593.38 94.87,-90.92 180.59,-189.9 258.25,-295.9 7.5,-10.22 12.58,-22.23 22.23,-39.54 -23.82,-13.31 -44.83,-27.12 -67.44,-37.45 -217.15,-99.69 -435.08,-198.05 -651.83,-298.67 -62.24,-28.91 -122.95,-61.79 -182.22,-96.41 -163.85,-95.68 -240.78,-244.38 -254.09,-429.28 -7.4,-102.31 10.32,-202.26 33.44,-301.65 64.72,-277.97 157.17,-547.25 254.9,-814.85 62.81,-172.27 129.17,-343.15 194.09,-514.6 10.32,-27.31 20.91,-54.54 25.38,-66.2 -11.04,-56.91 -26.7,-98.2 -25.22,-138.82 2.46,-65.59 36.67,-121.06 94.14,-152.65 53.32,-29.38 77.88,-73.66 99.29,-126.71 99.28,-245.86 201.28,-490.66 302.11,-735.91 12.38,-30.2 23.53,-60.92 34.1,-88.29 -2.77,-7.19 -3.28,-10.74 -5.18,-13.21 -29.07,-37.24 -50.33,-76.68 -38.77,-126.4 11.76,-50.43 38.63,-96.09 83.15,-116.63 80.89,-37.45 106.88,-106.94 133.8,-181.83 191.37,-533.39 410.85,-1055.43 639.46,-1573.73 71.34,-161.68 136.83,-325.82 203.7,-485.67 -76.58,-155.17 -45.09,-233.24 135.85,-335.8 53.67,-134.27 109.7,-273.93 165.34,-413.73 58.14,-146.02 115.25,-292.36 174.32,-437.96 14.02,-34.68 17.88,-64.21 4.98,-102.73 -28.08,-83.56 -1.75,-159.02 71.91,-206 50.86,-32.53 76.74,-74.94 98.46,-127.71 83.57,-202.81 168.83,-404.88 256.04,-606.06 28.61,-65.95 62.56,-129.9 98.46,-192.26 53.83,-93.51 129.78,-158.17 233.39,-199.58 182.95,-73.19 369.75,-77.82 560.72,-58.88 141.14,14.04 276.83,50.71 409.45,99.24 700.74,256.81 1402.9,509.63 2096.43,786.06 498.89,198.81 990.98,413.41 1487.04,618.65 499.14,206.47 1000.37,407.91 1500.58,611.87 169.97,69.27 334.83,148.29 491.27,245.62 168.01,104.54 243.87,258.72 260.36,448.4 8.58,98.86 -6.52,195.98 -30.87,291.88 -46.85,184.44 -113.46,362.31 -180.45,539.92 -251.72,667.75 -493.84,1339.31 -769.95,1997.56 -174.74,416.64 -358,829.75 -531.34,1246.92 -351.84,846.45 -693.04,1697.25 -1023.65,2552.23 -56.65,146.58 -114.28,292.92 -177.97,436.47 -43.65,98.51 -95.68,193.64 -149.2,287.27 -71.18,124.5 -173.75,211.91 -316.85,245.45 -9.35,2.21 -17.92,7.76 -32.98,14.49z"/>
   <path class="fil23" d="M2063.88 8497.32c-141.6,-49.47 -275.61,-115.31 -423.84,-188.8 70.82,5.02 296.09,88.19 423.57,151.2 0.1,12.54 0.2,25.07 0.26,37.61z"/>
   <path class="fil23" d="M2812.48 8950.48c11.66,-33.08 23.27,-66.14 34.93,-99.18 6.73,-0.04 13.45,-0.15 20.14,-0.25 -7.03,33.22 -14.18,66.45 -21.31,99.63 -11.2,-0.04 -22.45,-0.15 -33.75,-0.2z"/>
   <path class="fil23" d="M4543.27 217.31c8.74,-20.54 17.51,-41.09 26.25,-61.67 9.08,0.6 18.18,1.28 27.17,1.85 -10.48,28.45 -20.95,56.9 -31.43,85.3 -7.29,-8.46 -14.63,-16.99 -21.98,-25.48z"/>
   <path class="fil23" d="M1378.71 10074.08c-9.35,3.39 -18.64,6.78 -27.98,10.22 -0.32,-2.26 -1.44,-6.22 -0.87,-6.48 7.5,-3.54 15.24,-6.52 22.96,-9.7l5.9 5.95z"/>
   <path class="fil23" d="M1372.81 10068.12c3.74,-1.91 7.5,-3.76 11.3,-5.65 -1.85,3.84 -3.6,7.7 -5.4,11.6l-5.9 -5.95z"/>
   <path class="fil23" d="M5534.51 999.39c-9.35,7.05 -18.8,14.04 -28.2,21.07 -30.3,-9.08 -60.65,-18.14 -94.04,-28.14 -42.22,169.64 -132.98,299.02 -282.45,385.21 -152.49,87.98 -310.78,79.71 -470.83,27.79 -12.64,14.78 -23,27.02 -33.43,39.14 -7.5,-8.98 -15.05,-17.98 -22.55,-26.92 7.66,-17.05 15.3,-34.05 23.43,-52.02 46.23,6.16 88.8,9.04 130.1,17.81 206.93,44.48 471.24,-82.84 569.04,-338.4 12.58,-32.89 13.92,-71.11 47.2,-99.95 56.08,7.18 110.17,26.64 161.74,54.42z"/>
   <path class="fil23" d="M2361.52 7727.25c-1.43,-10.32 -1.89,-23.63 -5.45,-35.96 -12.68,-44.27 -56.45,-78.27 -100.52,-79.3 -40.78,-0.92 -77.03,23.48 -90.85,61.18 -18.02,49.11 -2.36,108.63 37.29,142.11 59.27,50.08 141.81,20.44 156.4,-56.24 1.81,-9.49 1.95,-19.41 3.13,-31.78zm-261.43 -23.53c4.37,-88.7 73.8,-154.44 159.63,-151.11 88.81,3.45 162,86.8 157.43,179.36 -4.27,87.57 -75.5,153.73 -161.33,149.87 -93.43,-4.15 -160.5,-80.89 -155.73,-178.12z"/>
   <path class="fil23" d="M4913.8 863.51c-61.64,2.14 -112.59,56.74 -107.45,115.21 4.21,47.74 43.91,83.7 91.93,83.19 60.81,-0.66 112.75,-52.24 112.85,-112.06 0.15,-50.84 -42.02,-88.24 -97.33,-86.34zm-164.88 95.95c7.51,-87.69 88.87,-158.36 173.6,-150.7 81.05,7.35 139.91,80.37 132.05,164.2 -7.6,82.09 -87.78,151.72 -167.8,146.02 -82.64,-5.95 -144.79,-77.92 -137.86,-159.51z"/>
   <path class="fil23" d="M9953.22 2975.55c2.01,57.16 51.1,107.04 106.17,107.96 49.72,0.87 101.86,-49.3 102.83,-98.92 1.08,-57.84 -54.35,-112.14 -113.46,-111.15 -54.39,0.98 -97.43,46.9 -95.54,102.1zm-58.14 -7.7c1.99,-81.17 72.26,-150.05 151.1,-148.08 86.55,2.15 154.77,79.42 150.5,170.37 -3.96,84.23 -61.54,140.37 -142.43,141.6 -77.35,1.18 -156.4,-64.57 -159.16,-163.89z"/>
   <path class="fil23" d="M7388.72 9795.95c51.57,-1.85 86.19,-36.17 86.03,-85.22 -0.2,-58.24 -47.35,-101.23 -108.22,-98.71 -49.62,2.11 -87.78,39.14 -87.92,85.32 -0.16,54.34 51.51,100.66 110.11,98.61zm-21.26 -241.61c85.71,-0.66 153.98,63.64 154.02,145 0.06,78.49 -64.45,141.09 -145.14,141.92 -96.05,1.02 -152.39,-74.99 -154.65,-145.87 -2.42,-77.76 63.89,-140.38 145.77,-141.05z"/>
   <path class="fil23" d="M9968.73 3409.87c11.41,4.27 22.81,8.58 38.73,14.53 -24.75,74.47 -43.14,147.41 -77.7,214.85 -42.16,120.33 -81.42,241.76 -126.91,360.81 -302.89,792.01 -605.26,1584.21 -911.37,2374.98 -366.41,946.5 -736.38,1891.6 -1104.9,2837.23 -14.27,36.57 -29.06,73.04 -45.15,108.79 -8.92,19.93 -27.01,29.28 -48.32,25.11 -22.35,-4.37 -44.17,-11.76 -65.9,-18.69 -307.91,-97.53 -640.19,59.53 -759.5,359.08 -9.39,23.78 -19.36,47.3 -27.42,67.03 -44.84,18.17 -76.44,-5.14 -108.79,-17.72 -216.7,-84.3 -433.1,-169.19 -649.11,-255.06 -921.89,-366.43 -1843.8,-732.94 -2765.33,-1100.27 -133.54,-53.21 -265.28,-111.2 -397.8,-166.98 -9.7,-4.32 -19.41,-8.58 -29.06,-12.84 -98.06,-31.29 -190.3,-75.77 -281.93,-118.8 -1.14,-44.94 15,-79.87 29.12,-115.35 18.02,-94.3 19.47,-188.25 -3.8,-282.19 -25.84,-104.32 -75.3,-194.86 -153.67,-268.78 -57.32,-54.09 -118.96,-102 -189.84,-138.07 -56.24,-28.55 -60.14,-40.72 -36.25,-101.27 67.12,-170.42 134.86,-340.53 203.6,-510.29 575.66,-1421.64 1150.97,-2843.28 1727.97,-4264.37 122.95,-303.04 252.24,-603.45 378.99,-904.9 11.3,-27.07 25.68,-52.85 38.63,-79.14 7.5,8.94 15.05,17.94 22.6,26.92 -11.09,34.11 -20.44,68.92 -33.43,102.21 -150.03,383.93 -297.24,768.95 -451.69,1151.03 -590.92,1461.71 -1184.3,2922.48 -1776.55,4383.63 -14.49,35.55 -26.86,71.97 -40.62,109.19 25.46,17.41 47.14,31.8 68.41,46.75 72.88,51 141.34,107.59 192.5,180.8 117.41,168 157.52,349.57 86.6,548.07 -9.46,30.68 -19.01,61.38 -28.51,92.1 21.05,28.75 56.39,29.48 85.51,42.06 53.27,23.06 107.81,43.24 161.84,64.66 18.55,6.99 37.14,14.08 55.69,21.11 27.88,8.84 56.34,16.29 83.61,26.72 272.11,104.11 544.79,206.68 815.89,313.4 953.27,375.25 1905.98,752.1 2859.05,1128.17 32.41,12.78 65.85,23 104.22,36.37 53.68,-190.65 166.11,-325.49 341.66,-400.93 171.13,-73.61 347.52,-90.14 527.89,-22.49 27.12,-32.16 35.39,-71.3 49.41,-107.24 597.91,-1537.52 1194.53,-3075.5 1793.97,-4612.41 118.86,-304.68 248.44,-605.1 373.1,-907.51 24.24,-64.21 48.44,-128.35 71.7,-189.94 -16.5,-11.2 -26.92,-18.33 -37.39,-25.42 -151.21,-52.81 -240.07,-165.23 -288.97,-311.25 -40.36,-120.61 -39.54,-244.74 -13.25,-368.74 4.67,-21.77 9.71,-43.55 15.83,-71.28 -33.54,-14.02 -62.82,-26.7 -92.51,-38.42 -1192.36,-471.97 -2384.78,-943.7 -3577.1,-1415.64 -51.71,-20.48 -103.18,-41.6 -154.39,-63.27 -54.25,-22.96 -108.02,-46.79 -161.94,-70.31 -49.92,-21.78 -99.91,-43.55 -149.83,-65.39 9.41,-7.03 18.85,-14.02 28.2,-21.07 55.72,18.61 112.28,35.03 167.02,56.14 631.76,243.37 1263.92,485.73 1894.58,731.87 667.3,260.41 1333.11,524.61 1999.57,787.16 24.34,9.57 48.54,19.63 72.94,28.93 36.31,13.9 48.42,41.76 44.17,77.96 -2.31,19.31 -7.51,38.31 -11.05,57.52 -16.18,87.21 -24.5,174.01 -11.3,263.38 18.96,128.78 73.35,236.68 170.31,322.6 34.16,30.36 71.85,56.71 107.96,84.91z"/>
   <path class="fil23" d="M4543.27 217.31c7.35,8.49 14.69,17.02 21.98,25.48 -3.84,11.14 -3.23,29.83 -23.21,13.83 -21.64,-13.83 -4.99,-26.41 1.22,-39.31z"/>
   <path class="fil23" d="M5316.16 9885.32c-50.94,16.03 -78.23,4.37 -106.62,-3.44 -164.46,-45.05 -324.41,-102.37 -480.65,-170.72 -215.89,-94.46 -432.83,-186.55 -648.7,-281.01 -146.23,-63.99 -295.95,-119.36 -441.87,-183.97 -32.41,-14.28 -64.29,-29.69 -92.7,-56.14 13.76,2.26 28.35,2.46 41.29,7.03 443.71,159.02 882.76,330.1 1318.36,510.03 102.83,42.47 206.38,83.26 309.09,126.04 29.28,12.23 56.75,28.91 101.8,52.18z"/>
   <path class="fil23" d="M7041.31 10448.96c-49.52,13.57 -84.08,-0.04 -117.36,-9.81 -71.95,-21.11 -143.86,-43.61 -213.82,-70.61 -350.24,-135.4 -699.81,-272.38 -1049.64,-408.9 -11.75,-4.62 -23.11,-10.48 -32.04,-24.85 40.21,10.42 81.15,18.49 120.39,31.68 287.84,97.02 575.57,194 862.58,293.22 111.04,38.38 220.38,81.78 329.9,124.41 32.66,12.68 66.1,26.03 99.99,64.86z"/>
   <path class="fil23" d="M5148.77 9670.93c-77.35,-7.03 -247.3,-68.52 -335.9,-123.26 46.98,-5.85 78.74,15.61 112.12,26.76 40.21,13.39 80.28,27.68 119.15,44.52 35.19,15.32 75.81,20.5 104.62,51.98z"/>
   <path class="fil23" d="M1588.52 8284.68c-4.72,-4.27 -9.45,-8.53 -14.12,-12.8 4.16,4.78 8.33,9.67 12.48,14.49l1.65 -1.69z"/>
   <path class="fil23" d="M1586.87 8286.37c8.63,-0.98 17.31,-2.66 25.84,-2.26 2.42,0.1 4.51,6.57 6.77,10.12 -2.4,0.47 -5.23,1.85 -7.18,1.12 -7.96,-3.28 -15.77,-7.24 -23.69,-10.77 -0.1,0.1 -1.75,1.79 -1.75,1.79z"/>
   <path class="fil23" d="M3438.38 9148.95c-4.78,-3.35 -9.61,-6.58 -14.38,-9.87 4.21,3.9 8.42,7.76 12.64,11.62l1.75 -1.75z"/>
   <path class="fil23" d="M3436.63 9150.7c10.12,0 20.14,0 30.2,0 -1.02,3.8 -2.11,7.54 -3.13,11.4 -8.37,-4.47 -16.74,-8.9 -25.22,-13.25 -0.1,0.1 -1.85,1.85 -1.85,1.85z"/>
   <path class="fil23" d="M5178.72 9689.17c0.87,-2.01 2.15,-5.81 2.46,-5.71 7.29,1.75 14.49,3.96 21.62,6.06 -2.5,1.91 -5.23,5.71 -7.34,5.34 -5.75,-0.98 -11.15,-3.7 -16.74,-5.69z"/>
   <path class="fil23" d="M5238.5 9705.41c2.72,-0.42 5.61,-1.4 8.23,-0.93 0.98,0.16 1.54,3.39 2.36,5.18 -2.88,0.67 -5.75,1.81 -8.53,1.7 -0.77,-0.06 -1.38,-3.9 -2.05,-5.95z"/>
   <path class="fil23" d="M3509.31 9182.28c-2.17,-1.99 -4.22,-4 -6.32,-6.01 2.26,-1.79 4.67,-5.12 6.83,-4.98 2.15,0.1 4.11,3.76 6.11,5.81 -2.27,1.79 -4.53,3.54 -6.62,5.18z"/>
   <path class="fil23" d="M2265.63 8750.44c-16.54,237.59 -316.39,660.1 -571.31,828.57 -17.25,-9.91 -8.78,-21.31 -0.1,-30.15 18.29,-18.65 37.91,-36.01 57.07,-53.88 201.44,-188.03 353.94,-410.99 470.53,-659.58 13.55,-28.83 29.12,-56.66 43.81,-84.95z"/>
   <path class="fil23" d="M2606.52 8902.83c-31.43,120.7 -83.37,219.04 -160.72,316.13 -2.87,-17.88 -7.75,-27.47 -4.82,-33.02 47.61,-92.25 96.25,-184.03 144.89,-275.77 1.08,-2.05 5.75,-2.21 20.65,-7.34z"/>
   <path class="fil23" d="M1374.6 9795.44c-30.2,35.03 -72.48,46.69 -115.05,57.57 35.95,-24.75 66.77,-59.94 117,-55.82l-1.95 -1.75z"/>
   <path class="fil23" d="M1570.29 9656.6c23.78,-36.41 62.77,-53.05 91.32,-80.59 23.22,19 9.1,29.89 1.34,36.06 -25.38,20.38 -52.65,38.36 -79.2,57.26 -4.27,-4.51 -8.78,-8.74 -13.45,-12.74z"/>
   <path class="fil23" d="M1474.08 9737.45c-16.48,13.31 -32.96,26.6 -53.72,43.4 0.57,-41.76 24.46,-44.78 48.9,-47.2 0.15,0.1 4.82,3.8 4.82,3.8z"/>
   <path class="fil23" d="M1534.08 9699.13c-13.98,22.14 -33.28,36.06 -60,38.32 0,0 -4.67,-3.7 -4.82,-3.8 7.54,-27.02 31.78,-33.95 53.16,-44.38 3.86,3.33 7.76,6.57 11.66,9.86z"/>
   <path class="fil23" d="M2044.98 9482.02c4.78,-21.82 13.96,-38.93 40.21,-37.85l-1.65 -1.59c-7.09,19.36 -16.44,36.27 -40.17,37.9l1.6 1.54z"/>
   <path class="fil23" d="M1522.42 9689.28c15.93,-10.89 31.9,-21.78 47.87,-32.67 4.67,4 9.19,8.23 13.45,12.74 -16.54,9.91 -33.08,19.83 -49.66,29.79 -3.9,-3.29 -7.8,-6.52 -11.66,-9.86z"/>
   <path class="fil23" d="M2400.91 9262.72c3.7,-9.87 5.81,-20.91 11.71,-29.13 3.25,-4.51 13.05,-4.25 19.89,-6.16 0.15,5.5 1.99,11.71 0.15,16.38 -4.31,10.69 -10.47,20.6 -15.81,30.88 -5.34,-4.02 -10.64,-7.96 -15.93,-11.97z"/>
   <path class="fil23" d="M1376.55 9797.19c1.24,-5.14 2.46,-10.22 3.7,-15.36 3.6,2.36 7.19,4.67 10.79,7.03 -5.45,2.21 -10.99,4.37 -16.44,6.58l1.95 1.75z"/>
   <path class="fil23" d="M1864.23 9656.5c-2.05,4 -4.15,7.96 -6.22,11.97 0.22,-1.79 -0.25,-4.27 0.77,-5.29 1.95,-2.05 4.78,-3.35 7.19,-4.98l-1.75 -1.7z"/>
   <path class="fil23" d="M1865.98 9658.21c6.42,-6.74 12.9,-13.51 19.32,-20.3l-1.81 -1.85c-6.36,6.83 -12.78,13.66 -19.2,20.5 -0.06,-0.06 1.69,1.65 1.69,1.65z"/>
   <path class="fil23" d="M1885.3 9637.91c6.22,-6.93 12.54,-13.92 18.84,-20.81 0.06,0.06 -1.75,-1.79 -1.75,-1.79 4.16,16.38 -3.64,21.93 -18.84,20.81 -0.06,-0.06 1.75,1.79 1.75,1.79z"/>
   <path class="fil23" d="M1922.01 9595.44c4.94,17.76 -1.59,24.45 -19.57,19.98 -0.06,-0.1 1.75,1.75 1.69,1.69 6.42,-6.73 12.94,-13.35 19.52,-19.87 0.1,0.1 -1.65,-1.79 -1.65,-1.79z"/>
   <path class="fil23" d="M1942.05 9576.08c5.39,18.8 -1.75,24.75 -19.98,19.47 -0.06,-0.1 1.69,1.79 1.59,1.69 6.68,-6.46 13.41,-12.84 20.14,-19.26l-1.75 -1.89z"/>
   <path class="fil23" d="M1943.8 9577.97c6.52,-6.62 13.05,-13.19 19.61,-19.83l-1.69 -1.95c6.01,18.85 -0.92,25.11 -19.63,19.99 -0.04,-0.1 1.7,1.79 1.7,1.79z"/>
   <path class="fil23" d="M1963.41 9558.14c7.05,-6.1 14.08,-12.17 21.17,-18.17 0.04,0.04 -1.49,-1.81 -1.49,-1.81 3.49,18.39 -3.19,24.97 -21.31,18.08 -0.06,-0.06 1.63,1.89 1.63,1.89z"/>
   <path class="fil23" d="M2003.88 9519.83c1.65,15.77 -2.97,24.49 -20.75,18.39 -0.04,-0.06 1.49,1.79 1.44,1.75 6.99,-6.17 13.92,-12.33 20.85,-18.45l-1.54 -1.69z"/>
   <path class="fil23" d="M2005.42 9521.52c6.52,-6.57 13.05,-13.21 19.63,-19.77l-1.54 -1.59c1.14,14.22 -3.7,22.39 -19.63,19.67l1.54 1.69z"/>
   <path class="fil23" d="M2025.05 9501.75c6.62,-6.58 13.31,-13.15 19.93,-19.73l-1.6 -1.54c0.73,13.98 -5.24,21.21 -19.87,19.68l1.54 1.59z"/>
   <path class="fil23" d="M2085.2 9444.17c-0.77,-13.96 4.57,-21.56 19.67,-19.2 0,-0.06 -1.75,-1.81 -1.75,-1.81 -6.52,6.48 -13.1,12.9 -19.63,19.36 0.06,0.06 1.7,1.65 1.7,1.65z"/>
   <path class="fil23" d="M2127.93 9407.09c-8.27,5.34 -16.54,10.63 -24.81,16.03 0,0.04 1.75,1.79 1.75,1.85 0.98,-16.07 11.04,-18.69 24.4,-16.38l-1.34 -1.5z"/>
   <path class="fil23" d="M2129.27 9408.59c-0.67,-4.89 -1.4,-9.71 -2.05,-14.59 0.45,1.38 1.28,2.66 1.28,3.95 -0.1,2.98 -0.63,5.91 -0.77,9 0.2,0.15 1.54,1.65 1.54,1.65z"/>
   <path class="fil23" d="M2159.3 9342.37c0.57,-0.35 1.19,-0.82 1.75,-1.22l-1.75 1.22z"/>
   <path class="fil23" d="M2357.82 9323.07c-0.82,2.42 -1.65,4.78 -2.42,7.19 1.4,-1.81 2.72,-3.6 4.16,-5.4l-1.75 -1.79z"/>
   <path class="fil23" d="M2161.05 9341.15l3.09 0.66c0,0 -4.88,0.63 -4.88,0.57 0.04,0 1.79,-1.22 1.79,-1.22z"/>
   <path class="fil23" d="M2359.56 9324.86c0.67,-12.88 2.82,-24.24 20.4,-19.26l-2.05 -1.69c-0.47,12.94 -5.61,21.01 -20.03,19.16 -0.06,0 1.69,1.79 1.69,1.79z"/>
   <path class="fil23" d="M2379.96 9305.6c1.38,-6.83 2.72,-13.61 4.11,-20.38 2.56,1.22 5.18,2.42 7.76,3.64 -4.63,5.04 -9.3,10.08 -13.92,15.05l2.05 1.69z"/>
   <path class="fil23" d="M7455.49 3107.34c-31.46,-11.01 -55.75,-19.06 -79.67,-27.94 -86.05,-32 -172.27,-63.55 -257.66,-97.02 -17.03,-6.68 -31.05,-21.2 -48.89,-33.81 30.68,-64.31 59.65,-123.45 87.24,-183.2 27.09,-58.59 64.35,-112.72 84.91,-176.94 -39.03,-16.22 -73.19,-31 -107.84,-44.48 -33.85,-13.16 -64.77,-37.17 -107.86,-31.96 -9.14,24.11 -18.3,47.96 -27.27,71.84 -28.11,75.23 -55.34,150.85 -84.68,225.57 -7.98,20.18 -22.41,37.85 -35.86,60.17 -34.17,-12.49 -64.09,-21.65 -92.54,-34.13 -78.81,-34.61 -156.88,-70.85 -235.6,-105.77 -14.6,-6.44 -30.65,-9.74 -44.54,-14.01 -42.98,71.82 -72.05,149.35 -77.19,204.95 28.61,10.69 58.05,21.59 87.43,32.69 80.53,30.37 161.26,60.25 241.29,91.71 17.66,6.99 32.98,19.87 51.6,31.46 -91.8,266.93 -219.42,514.34 -327.41,772.24 64.54,36.19 127.18,60.97 195.81,79.92 10.69,-25.19 20.3,-45.6 28.13,-66.68 30.06,-80.69 58,-162.06 89.51,-242.21 50.38,-128.08 102.38,-255.66 155.2,-382.84 12.75,-30.75 24.74,-63.49 54.39,-87.92 125.06,42.37 236.28,112.44 361.3,168.17 28.45,-71.38 66.91,-131.63 90.18,-209.81zm-581.99 -269.1c38.63,-137.59 68.59,-266.11 115.64,-393.84 18.97,1.31 36.54,-1.25 51.32,4.06 72.83,26.37 144.94,54.8 217.31,82.42 2.71,1.09 5.5,1.76 8.11,2.94 49.36,21.4 56.43,39.92 29.38,85.43 -55.73,93.83 -112.57,187.09 -168.73,280.64 -7.1,11.89 -13.06,24.63 -21.71,41.1 19.73,7.02 35.06,13.42 50.91,18.02 96.4,28.07 193.03,55.6 289.47,83.77 16.45,4.78 32.82,10.64 48.13,18.26 20.65,10.18 29.79,29.7 21.1,50.11 -33.85,79.23 -68.11,158.32 -104.52,236.33 -13.15,28.26 -34.69,33.66 -64.98,18.16 -69,-35.36 -137.19,-72.33 -205.37,-109.28 -44.25,-24.02 -87.88,-49.21 -134.43,-75.34 -6.73,14.37 -12.97,24.07 -15.91,34.69 -66.07,241.25 -152.6,475.55 -239.94,709.6 -29.21,78.39 -36.91,82.09 -112.63,50.94 -73.9,-30.39 -147.31,-62.47 -211.44,-100.76 -15.64,-30.75 -0.67,-51.34 8.65,-71.21 103.47,-221.01 207.86,-441.66 312.09,-662.35 7.21,-15.37 15.05,-30.43 21.91,-44.29 -11.63,-24.53 -33.18,-24.66 -51.16,-30.47 -92.93,-29.98 -186.04,-59.23 -278.78,-89.69 -24.07,-7.83 -47.06,-19.07 -68.5,-27.95 -2.21,-79.95 49.18,-215.27 114.01,-300.62 68.09,15.81 127.95,56.29 191.59,86.93 64.22,30.87 126.68,65.17 198.47,102.38z"/>
  </g>
 </g>
</svg>
