<svg width="144" height="144" viewBox="0 0 144 144" fill="none" xmlns="http://www.w3.org/2000/svg">
<rect width="144" height="144" fill="#588157"/>
<path d="M105.95 62.7172V43.6174C105.95 42.0146 105.683 40.9906 105.148 40.5454C104.614 40.0111 103.546 39.744 101.943 39.744H88.5863V66.5906H101.943C103.546 66.5906 104.614 66.368 105.148 65.9228C105.683 65.3885 105.95 64.32 105.95 62.7172ZM105.95 100.516V79.9471C105.95 78.3443 105.683 77.3203 105.148 76.8751C104.614 76.3409 103.546 76.0737 101.943 76.0737H88.5863V104.39H101.943C103.546 104.39 104.614 104.167 105.148 103.722C105.683 103.187 105.95 102.119 105.95 100.516ZM76.5654 30.2609H105.549C113.919 30.2609 118.104 34.1788 118.104 42.0146V63.2515C118.104 67.9708 116.323 70.7311 112.762 71.5325C116.323 72.423 118.104 75.0052 118.104 79.2793V102.119C118.104 109.955 113.919 113.873 105.549 113.873H76.5654V30.2609Z" fill="#F2F2F2"/>
<path d="M26.0869 30.2609H53.4678C61.7488 30.2609 65.8894 34.1788 65.8894 42.0146V69.7962C65.8894 77.632 61.7488 81.5499 53.4678 81.5499H38.1078V113.873H26.0869V30.2609ZM53.8685 67.9263V43.8845C53.8685 42.2817 53.6014 41.2577 53.0671 40.8125C52.5328 40.2783 51.4643 40.0111 49.8615 40.0111H38.1078V71.9332H49.8615C51.4643 71.9332 52.5328 71.6661 53.0671 71.1318C53.6014 70.5976 53.8685 69.529 53.8685 67.9263Z" fill="#F2F2F2"/>
</svg>
