<svg width="590" height="122" viewBox="0 0 590 122" fill="none" xmlns="http://www.w3.org/2000/svg">
<rect width="590" height="122" fill="#588157"/>
<path d="M335.774 21H347.294V101.128H335.774V21Z" fill="#F2F2F2"/>
<path d="M539.017 21H553.225C561.161 21 565.129 24.7547 565.129 32.264V89.864C565.129 97.3733 561.161 101.128 553.225 101.128H539.017C530.996 101.128 526.985 97.3733 526.985 89.864V32.264C526.985 24.7547 530.996 21 539.017 21ZM553.609 88.072V34.056C553.609 32.52 553.353 31.5387 552.841 31.112C552.329 30.6 551.305 30.344 549.769 30.344H542.345C540.809 30.344 539.785 30.6 539.273 31.112C538.846 31.5387 538.633 32.52 538.633 34.056V88.072C538.633 89.608 538.846 90.632 539.273 91.144C539.785 91.5707 540.809 91.784 542.345 91.784H549.769C551.305 91.784 552.329 91.5707 552.841 91.144C553.353 90.632 553.609 89.608 553.609 88.072Z" fill="#F2F2F2"/>
<path d="M516.239 46.088H504.463V33.8C504.463 32.264 504.207 31.2827 503.695 30.856C503.268 30.344 502.287 30.088 500.751 30.088H494.223C492.687 30.088 491.663 30.344 491.151 30.856C490.639 31.2827 490.383 32.264 490.383 33.8V88.456C490.383 89.992 490.639 91.016 491.151 91.528C491.663 91.9547 492.687 92.168 494.223 92.168H500.751C502.287 92.168 503.268 91.9547 503.695 91.528C504.207 91.016 504.463 89.992 504.463 88.456V76.296H516.239V89.864C516.239 97.4587 512.228 101.256 504.207 101.256H490.639C482.703 101.256 478.735 97.4587 478.735 89.864V32.264C478.735 24.7547 482.703 21 490.639 21H504.207C512.228 21 516.239 24.7547 516.239 32.264V46.088Z" fill="#F2F2F2"/>
<path d="M453.524 21H465.044V101.128H453.524V21Z" fill="#F2F2F2"/>
<path d="M425.52 91.784H445.36V101.128H414V21H425.52V91.784Z" fill="#F2F2F2"/>
<path d="M389.785 52.104V33.8C389.785 32.264 389.529 31.2827 389.017 30.856C388.505 30.344 387.481 30.088 385.945 30.088H373.145V55.816H385.945C387.481 55.816 388.505 55.6027 389.017 55.176C389.529 54.664 389.785 53.64 389.785 52.104ZM389.785 88.328V68.616C389.785 67.08 389.529 66.0987 389.017 65.672C388.505 65.16 387.481 64.904 385.945 64.904H373.145V92.04H385.945C387.481 92.04 388.505 91.8267 389.017 91.4C389.529 90.888 389.785 89.864 389.785 88.328ZM361.625 21H389.401C397.422 21 401.433 24.7547 401.433 32.264V52.616C401.433 57.1387 399.726 59.784 396.313 60.552C399.726 61.4053 401.433 63.88 401.433 67.976V89.864C401.433 97.3733 397.422 101.128 389.401 101.128H361.625V21Z" fill="#F2F2F2"/>
<path d="M310.535 52.104V33.8C310.535 32.264 310.279 31.2827 309.767 30.856C309.255 30.344 308.231 30.088 306.695 30.088H293.895V55.816H306.695C308.231 55.816 309.255 55.6027 309.767 55.176C310.279 54.664 310.535 53.64 310.535 52.104ZM310.535 88.328V68.616C310.535 67.08 310.279 66.0987 309.767 65.672C309.255 65.16 308.231 64.904 306.695 64.904H293.895V92.04H306.695C308.231 92.04 309.255 91.8267 309.767 91.4C310.279 90.888 310.535 89.864 310.535 88.328ZM282.375 21H310.151C318.172 21 322.183 24.7547 322.183 32.264V52.616C322.183 57.1387 320.476 59.784 317.063 60.552C320.476 61.4053 322.183 63.88 322.183 67.976V89.864C322.183 97.3733 318.172 101.128 310.151 101.128H282.375V21Z" fill="#F2F2F2"/>
<path d="M225.017 21H239.225C247.161 21 251.129 24.7547 251.129 32.264V89.864C251.129 97.3733 247.161 101.128 239.225 101.128H225.017C216.996 101.128 212.985 97.3733 212.985 89.864V32.264C212.985 24.7547 216.996 21 225.017 21ZM239.609 88.072V34.056C239.609 32.52 239.353 31.5387 238.841 31.112C238.329 30.6 237.305 30.344 235.769 30.344H228.345C226.809 30.344 225.785 30.6 225.273 31.112C224.846 31.5387 224.633 32.52 224.633 34.056V88.072C224.633 89.608 224.846 90.632 225.273 91.144C225.785 91.5707 226.809 91.784 228.345 91.784H235.769C237.305 91.784 238.329 91.5707 238.841 91.144C239.353 90.632 239.609 89.608 239.609 88.072Z" fill="#F2F2F2"/>
<path d="M189.669 21H200.293V101.128H188.645L171.749 43.272V101.128H161.125V21H173.285L189.669 77.192V21Z" fill="#F2F2F2"/>
<path d="M141.315 101.128L138.115 82.568H121.219L118.275 101.128H106.755L120.963 21H137.731L152.963 101.128H141.315ZM122.627 73.224H136.579L129.283 30.984L122.627 73.224Z" fill="#F2F2F2"/>
<path d="M84.895 91.784H104.735V101.128H73.375V21H84.895V91.784Z" fill="#F2F2F2"/>
<path d="M25 21H51.24C59.176 21 63.144 24.7547 63.144 32.264V58.888C63.144 66.3973 59.176 70.152 51.24 70.152H36.52V101.128H25V21ZM51.624 57.096V34.056C51.624 32.52 51.368 31.5387 50.856 31.112C50.344 30.6 49.32 30.344 47.784 30.344H36.52V60.936H47.784C49.32 60.936 50.344 60.68 50.856 60.168C51.368 59.656 51.624 58.632 51.624 57.096Z" fill="#F2F2F2"/>
<path d="M346.777 0L336.286 16.896H346.142L359.582 0H346.777Z" fill="#F2F2F2"/>
</svg>
